{
    "asset" : {
        "generator" : "Khronos glTF Blender I/O v1.1.46",
        "version" : "2.0"
    },
    "scene" : 0,
    "scenes" : [
        {
            "name" : "Scene",
            "nodes" : [
                0
            ]
        }
    ],
    "nodes" : [
        {
            "mesh" : 0,
            "name" : "Grid.001",
            "rotation" : [
                1,
                0,
                0,
                -1.6292068494294654e-07
            ],
            "translation" : [
                0,
                20,
                0
            ]
        }
    ],
    "materials" : [
        {
            "doubleSided" : true,
            "emissiveFactor" : [
                0,
                0,
                0
            ],
            "name" : "Material",
            "pbrMetallicRoughness" : {
                "baseColorFactor" : [
                    0.800000011920929,
                    0.800000011920929,
                    0.800000011920929,
                    1
                ],
                "metallicFactor" : 0,
                "roughnessFactor" : 0.5
            }
        },
        {
            "doubleSided" : true,
            "emissiveFactor" : [
                0,
                0,
                0
            ],
            "name" : "Material.001",
            "pbrMetallicRoughness" : {
                "baseColorFactor" : [
                    0.5039646029472351,
                    0.5039646029472351,
                    0.5039646029472351,
                    1
                ],
                "metallicFactor" : 0,
                "roughnessFactor" : 0.5
            }
        }
    ],
    "meshes" : [
        {
            "name" : "Grid.001",
            "primitives" : [
                {
                    "attributes" : {
                        "POSITION" : 0,
                        "NORMAL" : 1,
                        "TEXCOORD_0" : 2
                    },
                    "indices" : 3,
                    "material" : 0
                },
                {
                    "attributes" : {
                        "POSITION" : 4,
                        "NORMAL" : 5,
                        "TEXCOORD_0" : 6
                    },
                    "indices" : 7,
                    "material" : 1
                }
            ]
        }
    ],
    "accessors" : [
        {
            "bufferView" : 0,
            "componentType" : 5126,
            "count" : 1725,
            "max" : [
                10.000003814697266,
                20.000003814697266,
                10
            ],
            "min" : [
                -10.000001907348633,
                -2.86102294921875e-06,
                -10.000005722045898
            ],
            "type" : "VEC3"
        },
        {
            "bufferView" : 1,
            "componentType" : 5126,
            "count" : 1725,
            "type" : "VEC3"
        },
        {
            "bufferView" : 2,
            "componentType" : 5126,
            "count" : 1725,
            "type" : "VEC2"
        },
        {
            "bufferView" : 3,
            "componentType" : 5123,
            "count" : 3492,
            "type" : "SCALAR"
        },
        {
            "bufferView" : 4,
            "componentType" : 5126,
            "count" : 72,
            "max" : [
                -9.999998092651367,
                17.999998092651367,
                5.999997138977051
            ],
            "min" : [
                -10.000001907348633,
                3.9999947547912598,
                -6.000006675720215
            ],
            "type" : "VEC3"
        },
        {
            "bufferView" : 5,
            "componentType" : 5126,
            "count" : 72,
            "type" : "VEC3"
        },
        {
            "bufferView" : 6,
            "componentType" : 5126,
            "count" : 72,
            "type" : "VEC2"
        },
        {
            "bufferView" : 7,
            "componentType" : 5123,
            "count" : 108,
            "type" : "SCALAR"
        }
    ],
    "bufferViews" : [
        {
            "buffer" : 0,
            "byteLength" : 20700,
            "byteOffset" : 0
        },
        {
            "buffer" : 0,
            "byteLength" : 20700,
            "byteOffset" : 20700
        },
        {
            "buffer" : 0,
            "byteLength" : 13800,
            "byteOffset" : 41400
        },
        {
            "buffer" : 0,
            "byteLength" : 6984,
            "byteOffset" : 55200
        },
        {
            "buffer" : 0,
            "byteLength" : 864,
            "byteOffset" : 62184
        },
        {
            "buffer" : 0,
            "byteLength" : 864,
            "byteOffset" : 63048
        },
        {
            "buffer" : 0,
            "byteLength" : 576,
            "byteOffset" : 63912
        },
        {
            "buffer" : 0,
            "byteLength" : 216,
            "byteOffset" : 64488
        }
    ],
    "buffers" : [
        {
            "byteLength" : 64704,
            "uri" : "Map3.bin"
        }
    ]
}
