{
    "asset" : {
        "generator" : "Khronos glTF Blender I/O v1.1.46",
        "version" : "2.0"
    },
    "scene" : 0,
    "scenes" : [
        {
            "name" : "Scene",
            "nodes" : [
                0
            ]
        }
    ],
    "nodes" : [
        {
            "mesh" : 0,
            "name" : "Grid.001",
            "rotation" : [
                1,
                0,
                0,
                -1.6292068494294654e-07
            ],
            "translation" : [
                0,
                20,
                0
            ]
        }
    ],
    "materials" : [
        {
            "emissiveFactor" : [
                0,
                0,
                0
            ],
            "name" : "Ground",
            "pbrMetallicRoughness" : {
                "baseColorFactor" : [
                    0.800000011920929,
                    0.800000011920929,
                    0.800000011920929,
                    1
                ],
                "metallicFactor" : 0,
                "roughnessFactor" : 0.5
            }
        },
        {
            "emissiveFactor" : [
                0,
                0,
                0
            ],
            "name" : "OutWall",
            "normalTexture" : {
                "index" : 0,
                "texCoord" : 0
            },
            "pbrMetallicRoughness" : {
                "baseColorTexture" : {
                    "index" : 1,
                    "texCoord" : 0
                },
                "metallicFactor" : 0,
                "roughnessFactor" : 0.5
            }
        },
        {
            "emissiveFactor" : [
                0,
                0,
                0
            ],
            "name" : "InWall",
            "pbrMetallicRoughness" : {
                "baseColorFactor" : [
                    0.6920710802078247,
                    0.6920710802078247,
                    0.6920710802078247,
                    1
                ],
                "metallicFactor" : 0,
                "roughnessFactor" : 0.44999998807907104
            }
        },
        {
            "doubleSided" : true,
            "emissiveFactor" : [
                0,
                0,
                0
            ],
            "name" : "Dark",
            "pbrMetallicRoughness" : {
                "baseColorFactor" : [
                    0.10048149526119232,
                    0.10048149526119232,
                    0.10048149526119232,
                    1
                ],
                "metallicFactor" : 0,
                "roughnessFactor" : 0.5
            }
        }
    ],
    "meshes" : [
        {
            "name" : "Grid.001",
            "primitives" : [
                {
                    "attributes" : {
                        "POSITION" : 0,
                        "NORMAL" : 1,
                        "TEXCOORD_0" : 2
                    },
                    "indices" : 3,
                    "material" : 0
                },
                {
                    "attributes" : {
                        "POSITION" : 4,
                        "NORMAL" : 5,
                        "TEXCOORD_0" : 6
                    },
                    "indices" : 7,
                    "material" : 1
                },
                {
                    "attributes" : {
                        "POSITION" : 8,
                        "NORMAL" : 9,
                        "TEXCOORD_0" : 10
                    },
                    "indices" : 11,
                    "material" : 2
                },
                {
                    "attributes" : {
                        "POSITION" : 12,
                        "NORMAL" : 13,
                        "TEXCOORD_0" : 14
                    },
                    "indices" : 15,
                    "material" : 3
                }
            ]
        }
    ],
    "textures" : [
        {
            "source" : 0
        },
        {
            "source" : 1
        }
    ],
    "images" : [
        {
            "mimeType" : "image/png",
            "name" : "TileNormal",
            "uri" : "TileNormal.png"
        },
        {
            "mimeType" : "image/png",
            "name" : "Tile",
            "uri" : "Tile.png"
        }
    ],
    "accessors" : [
        {
            "bufferView" : 0,
            "componentType" : 5126,
            "count" : 870,
            "max" : [
                10.000001907348633,
                20.000001907348633,
                10.000001907348633
            ],
            "min" : [
                -16,
                -2.86102294921875e-06,
                -14.000006675720215
            ],
            "type" : "VEC3"
        },
        {
            "bufferView" : 1,
            "componentType" : 5126,
            "count" : 870,
            "type" : "VEC3"
        },
        {
            "bufferView" : 2,
            "componentType" : 5126,
            "count" : 870,
            "type" : "VEC2"
        },
        {
            "bufferView" : 3,
            "componentType" : 5123,
            "count" : 1791,
            "type" : "SCALAR"
        },
        {
            "bufferView" : 4,
            "componentType" : 5126,
            "count" : 1409,
            "max" : [
                10.000003814697266,
                20.000001907348633,
                14.708288192749023
            ],
            "min" : [
                -18.679533004760742,
                -2.86102294921875e-06,
                -16.465681076049805
            ],
            "type" : "VEC3"
        },
        {
            "bufferView" : 5,
            "componentType" : 5126,
            "count" : 1409,
            "type" : "VEC3"
        },
        {
            "bufferView" : 6,
            "componentType" : 5126,
            "count" : 1409,
            "type" : "VEC2"
        },
        {
            "bufferView" : 7,
            "componentType" : 5123,
            "count" : 2523,
            "type" : "SCALAR"
        },
        {
            "bufferView" : 8,
            "componentType" : 5126,
            "count" : 440,
            "max" : [
                9.999999046325684,
                20.000001907348633,
                10
            ],
            "min" : [
                -16.000001907348633,
                -1.9073499970545527e-06,
                -14.000006675720215
            ],
            "type" : "VEC3"
        },
        {
            "bufferView" : 9,
            "componentType" : 5126,
            "count" : 440,
            "type" : "VEC3"
        },
        {
            "bufferView" : 10,
            "componentType" : 5126,
            "count" : 440,
            "type" : "VEC2"
        },
        {
            "bufferView" : 11,
            "componentType" : 5123,
            "count" : 816,
            "type" : "SCALAR"
        },
        {
            "bufferView" : 12,
            "componentType" : 5126,
            "count" : 12,
            "max" : [
                -13.999998092651367,
                5.999994277954102,
                -4.000001907348633
            ],
            "min" : [
                -18,
                1.999990463256836,
                -4.000003337860107
            ],
            "type" : "VEC3"
        },
        {
            "bufferView" : 13,
            "componentType" : 5126,
            "count" : 12,
            "type" : "VEC3"
        },
        {
            "bufferView" : 14,
            "componentType" : 5126,
            "count" : 12,
            "type" : "VEC2"
        },
        {
            "bufferView" : 15,
            "componentType" : 5123,
            "count" : 24,
            "type" : "SCALAR"
        }
    ],
    "bufferViews" : [
        {
            "buffer" : 0,
            "byteLength" : 10440,
            "byteOffset" : 0
        },
        {
            "buffer" : 0,
            "byteLength" : 10440,
            "byteOffset" : 10440
        },
        {
            "buffer" : 0,
            "byteLength" : 6960,
            "byteOffset" : 20880
        },
        {
            "buffer" : 0,
            "byteLength" : 3582,
            "byteOffset" : 27840
        },
        {
            "buffer" : 0,
            "byteLength" : 16908,
            "byteOffset" : 31424
        },
        {
            "buffer" : 0,
            "byteLength" : 16908,
            "byteOffset" : 48332
        },
        {
            "buffer" : 0,
            "byteLength" : 11272,
            "byteOffset" : 65240
        },
        {
            "buffer" : 0,
            "byteLength" : 5046,
            "byteOffset" : 76512
        },
        {
            "buffer" : 0,
            "byteLength" : 5280,
            "byteOffset" : 81560
        },
        {
            "buffer" : 0,
            "byteLength" : 5280,
            "byteOffset" : 86840
        },
        {
            "buffer" : 0,
            "byteLength" : 3520,
            "byteOffset" : 92120
        },
        {
            "buffer" : 0,
            "byteLength" : 1632,
            "byteOffset" : 95640
        },
        {
            "buffer" : 0,
            "byteLength" : 144,
            "byteOffset" : 97272
        },
        {
            "buffer" : 0,
            "byteLength" : 144,
            "byteOffset" : 97416
        },
        {
            "buffer" : 0,
            "byteLength" : 96,
            "byteOffset" : 97560
        },
        {
            "buffer" : 0,
            "byteLength" : 48,
            "byteOffset" : 97656
        }
    ],
    "buffers" : [
        {
            "byteLength" : 97704,
            "uri" : "Area5.bin"
        }
    ]
}
