{
    "asset" : {
        "generator" : "Khronos glTF Blender I/O v1.1.46",
        "version" : "2.0"
    },
    "scene" : 0,
    "scenes" : [
        {
            "name" : "Scene",
            "nodes" : [
                0
            ]
        }
    ],
    "nodes" : [
        {
            "mesh" : 0,
            "name" : "Grid.001",
            "rotation" : [
                0,
                0,
                0,
                -1
            ]
        }
    ],
    "materials" : [
        {
            "emissiveFactor" : [
                0,
                0,
                0
            ],
            "name" : "Ground",
            "pbrMetallicRoughness" : {
                "baseColorFactor" : [
                    1,
                    1,
                    1,
                    1
                ],
                "metallicFactor" : 0,
                "roughnessFactor" : 0.5
            }
        },
        {
            "emissiveFactor" : [
                0,
                0,
                0
            ],
            "name" : "InWall",
            "pbrMetallicRoughness" : {
                "baseColorFactor" : [
                    0.8162760734558105,
                    0.8162760734558105,
                    0.8162760734558105,
                    1
                ],
                "metallicFactor" : 0,
                "roughnessFactor" : 0.5
            }
        },
        {
            "emissiveFactor" : [
                0,
                0,
                0
            ],
            "name" : "OutWall",
            "pbrMetallicRoughness" : {
                "baseColorTexture" : {
                    "index" : 0,
                    "texCoord" : 0
                },
                "metallicFactor" : 0,
                "roughnessFactor" : 0.5
            }
        }
    ],
    "meshes" : [
        {
            "name" : "Grid.001",
            "primitives" : [
                {
                    "attributes" : {
                        "POSITION" : 0,
                        "NORMAL" : 1,
                        "TEXCOORD_0" : 2
                    },
                    "indices" : 3,
                    "material" : 0
                },
                {
                    "attributes" : {
                        "POSITION" : 4,
                        "NORMAL" : 5,
                        "TEXCOORD_0" : 6
                    },
                    "indices" : 7,
                    "material" : 1
                },
                {
                    "attributes" : {
                        "POSITION" : 8,
                        "NORMAL" : 9,
                        "TEXCOORD_0" : 10
                    },
                    "indices" : 11,
                    "material" : 2
                }
            ]
        }
    ],
    "textures" : [
        {
            "source" : 0
        }
    ],
    "images" : [
        {
            "mimeType" : "image/png",
            "name" : "Tile",
            "uri" : "Tile.png"
        }
    ],
    "accessors" : [
        {
            "bufferView" : 0,
            "componentType" : 5126,
            "count" : 116,
            "max" : [
                10.00000286102295,
                20.000003814697266,
                9.999998092651367
            ],
            "min" : [
                -22,
                -2.86102294921875e-06,
                -10.00001049041748
            ],
            "type" : "VEC3"
        },
        {
            "bufferView" : 1,
            "componentType" : 5126,
            "count" : 116,
            "type" : "VEC3"
        },
        {
            "bufferView" : 2,
            "componentType" : 5126,
            "count" : 116,
            "type" : "VEC2"
        },
        {
            "bufferView" : 3,
            "componentType" : 5123,
            "count" : 174,
            "type" : "SCALAR"
        },
        {
            "bufferView" : 4,
            "componentType" : 5126,
            "count" : 115,
            "max" : [
                10.00000286102295,
                13.999996185302734,
                9.99999713897705
            ],
            "min" : [
                -18,
                -1.430511474609375e-06,
                -10.000004768371582
            ],
            "type" : "VEC3"
        },
        {
            "bufferView" : 5,
            "componentType" : 5126,
            "count" : 115,
            "type" : "VEC3"
        },
        {
            "bufferView" : 6,
            "componentType" : 5126,
            "count" : 115,
            "type" : "VEC2"
        },
        {
            "bufferView" : 7,
            "componentType" : 5123,
            "count" : 171,
            "type" : "SCALAR"
        },
        {
            "bufferView" : 8,
            "componentType" : 5126,
            "count" : 95,
            "max" : [
                10.00000286102295,
                20.000003814697266,
                9.999998092651367
            ],
            "min" : [
                -22,
                -2.86102294921875e-06,
                -10.00001049041748
            ],
            "type" : "VEC3"
        },
        {
            "bufferView" : 9,
            "componentType" : 5126,
            "count" : 95,
            "type" : "VEC3"
        },
        {
            "bufferView" : 10,
            "componentType" : 5126,
            "count" : 95,
            "type" : "VEC2"
        },
        {
            "bufferView" : 11,
            "componentType" : 5123,
            "count" : 141,
            "type" : "SCALAR"
        }
    ],
    "bufferViews" : [
        {
            "buffer" : 0,
            "byteLength" : 1392,
            "byteOffset" : 0
        },
        {
            "buffer" : 0,
            "byteLength" : 1392,
            "byteOffset" : 1392
        },
        {
            "buffer" : 0,
            "byteLength" : 928,
            "byteOffset" : 2784
        },
        {
            "buffer" : 0,
            "byteLength" : 348,
            "byteOffset" : 3712
        },
        {
            "buffer" : 0,
            "byteLength" : 1380,
            "byteOffset" : 4060
        },
        {
            "buffer" : 0,
            "byteLength" : 1380,
            "byteOffset" : 5440
        },
        {
            "buffer" : 0,
            "byteLength" : 920,
            "byteOffset" : 6820
        },
        {
            "buffer" : 0,
            "byteLength" : 342,
            "byteOffset" : 7740
        },
        {
            "buffer" : 0,
            "byteLength" : 1140,
            "byteOffset" : 8084
        },
        {
            "buffer" : 0,
            "byteLength" : 1140,
            "byteOffset" : 9224
        },
        {
            "buffer" : 0,
            "byteLength" : 760,
            "byteOffset" : 10364
        },
        {
            "buffer" : 0,
            "byteLength" : 282,
            "byteOffset" : 11124
        }
    ],
    "buffers" : [
        {
            "byteLength" : 11408,
            "uri" : "Map1.bin"
        }
    ]
}
