{
    "asset" : {
        "generator" : "Khronos glTF Blender I/O v1.1.46",
        "version" : "2.0"
    },
    "scene" : 0,
    "scenes" : [
        {
            "name" : "Scene",
            "nodes" : [
                0
            ]
        }
    ],
    "nodes" : [
        {
            "mesh" : 0,
            "name" : "Grid.001",
            "rotation" : [
                0,
                0,
                0,
                -1
            ]
        }
    ],
    "materials" : [
        {
            "doubleSided" : true,
            "emissiveFactor" : [
                0,
                0,
                0
            ],
            "name" : "Material",
            "pbrMetallicRoughness" : {
                "baseColorFactor" : [
                    0.7602375149726868,
                    0.7545728087425232,
                    0.7842311263084412,
                    1
                ],
                "metallicFactor" : 0,
                "roughnessFactor" : 0.5
            }
        },
        {
            "doubleSided" : true,
            "emissiveFactor" : [
                0,
                0,
                0
            ],
            "name" : "Material.001",
            "pbrMetallicRoughness" : {
                "baseColorFactor" : [
                    0.20045362412929535,
                    0.19458644092082977,
                    0.20186975598335266,
                    1
                ],
                "metallicFactor" : 0,
                "roughnessFactor" : 0.5
            }
        },
        {
            "doubleSided" : true,
            "emissiveFactor" : [
                0,
                0,
                0
            ],
            "name" : "Material.003",
            "pbrMetallicRoughness" : {
                "baseColorFactor" : [
                    0.08688671886920929,
                    0.08688671886920929,
                    0.08688671886920929,
                    1
                ],
                "metallicFactor" : 0,
                "roughnessFactor" : 0.5
            }
        }
    ],
    "meshes" : [
        {
            "name" : "Grid.001",
            "primitives" : [
                {
                    "attributes" : {
                        "POSITION" : 0,
                        "NORMAL" : 1,
                        "TEXCOORD_0" : 2
                    },
                    "indices" : 3,
                    "material" : 0
                },
                {
                    "attributes" : {
                        "POSITION" : 4,
                        "NORMAL" : 5,
                        "TEXCOORD_0" : 6
                    },
                    "indices" : 7,
                    "material" : 1
                },
                {
                    "attributes" : {
                        "POSITION" : 8,
                        "NORMAL" : 9,
                        "TEXCOORD_0" : 10
                    },
                    "indices" : 11,
                    "material" : 2
                }
            ]
        }
    ],
    "accessors" : [
        {
            "bufferView" : 0,
            "componentType" : 5126,
            "count" : 445,
            "max" : [
                10.00000286102295,
                20.000003814697266,
                9.999998092651367
            ],
            "min" : [
                -10.000000953674316,
                -2.86102294921875e-06,
                -10.000005722045898
            ],
            "type" : "VEC3"
        },
        {
            "bufferView" : 1,
            "componentType" : 5126,
            "count" : 445,
            "type" : "VEC3"
        },
        {
            "bufferView" : 2,
            "componentType" : 5126,
            "count" : 445,
            "type" : "VEC2"
        },
        {
            "bufferView" : 3,
            "componentType" : 5123,
            "count" : 1122,
            "type" : "SCALAR"
        },
        {
            "bufferView" : 4,
            "componentType" : 5126,
            "count" : 8,
            "max" : [
                10.00000286102295,
                4.000001907348633,
                8
            ],
            "min" : [
                -8,
                0,
                5.999997138977051
            ],
            "type" : "VEC3"
        },
        {
            "bufferView" : 5,
            "componentType" : 5126,
            "count" : 8,
            "type" : "VEC3"
        },
        {
            "bufferView" : 6,
            "componentType" : 5126,
            "count" : 8,
            "type" : "VEC2"
        },
        {
            "bufferView" : 7,
            "componentType" : 5123,
            "count" : 12,
            "type" : "SCALAR"
        },
        {
            "bufferView" : 8,
            "componentType" : 5126,
            "count" : 1253,
            "max" : [
                10.000003814697266,
                20.000003814697266,
                9.999999046325684
            ],
            "min" : [
                -10.000001907348633,
                -2.86102294921875e-06,
                -10.000005722045898
            ],
            "type" : "VEC3"
        },
        {
            "bufferView" : 9,
            "componentType" : 5126,
            "count" : 1253,
            "type" : "VEC3"
        },
        {
            "bufferView" : 10,
            "componentType" : 5126,
            "count" : 1253,
            "type" : "VEC2"
        },
        {
            "bufferView" : 11,
            "componentType" : 5123,
            "count" : 2262,
            "type" : "SCALAR"
        }
    ],
    "bufferViews" : [
        {
            "buffer" : 0,
            "byteLength" : 5340,
            "byteOffset" : 0
        },
        {
            "buffer" : 0,
            "byteLength" : 5340,
            "byteOffset" : 5340
        },
        {
            "buffer" : 0,
            "byteLength" : 3560,
            "byteOffset" : 10680
        },
        {
            "buffer" : 0,
            "byteLength" : 2244,
            "byteOffset" : 14240
        },
        {
            "buffer" : 0,
            "byteLength" : 96,
            "byteOffset" : 16484
        },
        {
            "buffer" : 0,
            "byteLength" : 96,
            "byteOffset" : 16580
        },
        {
            "buffer" : 0,
            "byteLength" : 64,
            "byteOffset" : 16676
        },
        {
            "buffer" : 0,
            "byteLength" : 24,
            "byteOffset" : 16740
        },
        {
            "buffer" : 0,
            "byteLength" : 15036,
            "byteOffset" : 16764
        },
        {
            "buffer" : 0,
            "byteLength" : 15036,
            "byteOffset" : 31800
        },
        {
            "buffer" : 0,
            "byteLength" : 10024,
            "byteOffset" : 46836
        },
        {
            "buffer" : 0,
            "byteLength" : 4524,
            "byteOffset" : 56860
        }
    ],
    "buffers" : [
        {
            "byteLength" : 61384,
            "uri" : "Map1.bin"
        }
    ]
}
