{
    "asset" : {
        "generator" : "Khronos glTF Blender I/O v1.1.46",
        "version" : "2.0"
    },
    "scene" : 0,
    "scenes" : [
        {
            "name" : "Scene",
            "nodes" : [
                0
            ]
        }
    ],
    "nodes" : [
        {
            "mesh" : 0,
            "name" : "Grid.001",
            "rotation" : [
                1,
                0,
                0,
                -1.6292068494294654e-07
            ],
            "translation" : [
                0,
                20,
                0
            ]
        }
    ],
    "materials" : [
        {
            "emissiveFactor" : [
                0,
                0,
                0
            ],
            "name" : "Ground",
            "pbrMetallicRoughness" : {
                "baseColorFactor" : [
                    1,
                    1,
                    1,
                    1
                ],
                "metallicFactor" : 0,
                "roughnessFactor" : 0.5
            }
        },
        {
            "emissiveFactor" : [
                0,
                0,
                0
            ],
            "name" : "OutWall",
            "normalTexture" : {
                "index" : 0,
                "texCoord" : 0
            },
            "pbrMetallicRoughness" : {
                "baseColorTexture" : {
                    "index" : 1,
                    "texCoord" : 0
                },
                "metallicFactor" : 0,
                "roughnessFactor" : 0.5
            }
        },
        {
            "emissiveFactor" : [
                0,
                0,
                0
            ],
            "name" : "InWall",
            "normalTexture" : {
                "index" : 2,
                "texCoord" : 0
            },
            "pbrMetallicRoughness" : {
                "baseColorFactor" : [
                    0.6920710802078247,
                    0.6920710802078247,
                    0.6920710802078247,
                    1
                ],
                "metallicFactor" : 0,
                "roughnessFactor" : 0.44999998807907104
            }
        },
        {
            "doubleSided" : true,
            "emissiveFactor" : [
                0,
                0,
                0
            ],
            "name" : "Dark",
            "pbrMetallicRoughness" : {
                "baseColorFactor" : [
                    0.05087608844041824,
                    0.05087608844041824,
                    0.05087608844041824,
                    1
                ],
                "metallicFactor" : 0,
                "roughnessFactor" : 0.5
            }
        },
        {
            "doubleSided" : true,
            "emissiveFactor" : [
                0,
                0,
                0
            ],
            "name" : "InWall2",
            "normalTexture" : {
                "index" : 3,
                "texCoord" : 0
            },
            "pbrMetallicRoughness" : {
                "baseColorFactor" : [
                    0.800000011920929,
                    0.800000011920929,
                    0.800000011920929,
                    1
                ],
                "metallicFactor" : 0,
                "roughnessFactor" : 0.5
            }
        },
        {
            "doubleSided" : true,
            "emissiveFactor" : [
                0,
                0,
                0
            ],
            "name" : "Frame",
            "pbrMetallicRoughness" : {
                "baseColorFactor" : [
                    0.4479883313179016,
                    0.4479883313179016,
                    0.4479883313179016,
                    1
                ],
                "metallicFactor" : 0.5,
                "roughnessFactor" : 0.5
            }
        }
    ],
    "meshes" : [
        {
            "name" : "Grid.001",
            "primitives" : [
                {
                    "attributes" : {
                        "POSITION" : 0,
                        "NORMAL" : 1,
                        "TEXCOORD_0" : 2
                    },
                    "indices" : 3,
                    "material" : 0
                },
                {
                    "attributes" : {
                        "POSITION" : 4,
                        "NORMAL" : 5,
                        "TEXCOORD_0" : 6
                    },
                    "indices" : 7,
                    "material" : 1
                },
                {
                    "attributes" : {
                        "POSITION" : 8,
                        "NORMAL" : 9,
                        "TEXCOORD_0" : 10
                    },
                    "indices" : 11,
                    "material" : 2
                },
                {
                    "attributes" : {
                        "POSITION" : 12,
                        "NORMAL" : 13,
                        "TEXCOORD_0" : 14
                    },
                    "indices" : 15,
                    "material" : 3
                },
                {
                    "attributes" : {
                        "POSITION" : 16,
                        "NORMAL" : 17,
                        "TEXCOORD_0" : 18
                    },
                    "indices" : 19,
                    "material" : 4
                },
                {
                    "attributes" : {
                        "POSITION" : 20,
                        "NORMAL" : 21,
                        "TEXCOORD_0" : 22
                    },
                    "indices" : 23,
                    "material" : 5
                }
            ]
        }
    ],
    "textures" : [
        {
            "source" : 0
        },
        {
            "source" : 1
        },
        {
            "source" : 2
        },
        {
            "source" : 3
        }
    ],
    "images" : [
        {
            "mimeType" : "image/png",
            "name" : "TileNormal",
            "uri" : "TileNormal.png"
        },
        {
            "mimeType" : "image/png",
            "name" : "Tile",
            "uri" : "Tile.png"
        },
        {
            "mimeType" : "image/png",
            "name" : "IronNormal",
            "uri" : "IronNormal.png"
        },
        {
            "mimeType" : "image/png",
            "name" : "WallNormal",
            "uri" : "WallNormal.png"
        }
    ],
    "accessors" : [
        {
            "bufferView" : 0,
            "componentType" : 5126,
            "count" : 871,
            "max" : [
                18.68505859375,
                20,
                10
            ],
            "min" : [
                -23.26602554321289,
                -0.6006205677986145,
                -16.04791259765625
            ],
            "type" : "VEC3"
        },
        {
            "bufferView" : 1,
            "componentType" : 5126,
            "count" : 871,
            "type" : "VEC3"
        },
        {
            "bufferView" : 2,
            "componentType" : 5126,
            "count" : 871,
            "type" : "VEC2"
        },
        {
            "bufferView" : 3,
            "componentType" : 5123,
            "count" : 1989,
            "type" : "SCALAR"
        },
        {
            "bufferView" : 4,
            "componentType" : 5126,
            "count" : 898,
            "max" : [
                10.000003814697266,
                20,
                10
            ],
            "min" : [
                -10.000001907348633,
                -2.86102294921875e-06,
                -10.000005722045898
            ],
            "type" : "VEC3"
        },
        {
            "bufferView" : 5,
            "componentType" : 5126,
            "count" : 898,
            "type" : "VEC3"
        },
        {
            "bufferView" : 6,
            "componentType" : 5126,
            "count" : 898,
            "type" : "VEC2"
        },
        {
            "bufferView" : 7,
            "componentType" : 5123,
            "count" : 1512,
            "type" : "SCALAR"
        },
        {
            "bufferView" : 8,
            "componentType" : 5126,
            "count" : 599,
            "max" : [
                18,
                19.999996185302734,
                9.999998092651367
            ],
            "min" : [
                -22,
                -5.36441984877456e-06,
                -16.0000057220459
            ],
            "type" : "VEC3"
        },
        {
            "bufferView" : 9,
            "componentType" : 5126,
            "count" : 599,
            "type" : "VEC3"
        },
        {
            "bufferView" : 10,
            "componentType" : 5126,
            "count" : 599,
            "type" : "VEC2"
        },
        {
            "bufferView" : 11,
            "componentType" : 5123,
            "count" : 984,
            "type" : "SCALAR"
        },
        {
            "bufferView" : 12,
            "componentType" : 5126,
            "count" : 16,
            "max" : [
                18,
                16.000009536743164,
                -4.000004291534424
            ],
            "min" : [
                13.99999713897705,
                12,
                -4.000005722045898
            ],
            "type" : "VEC3"
        },
        {
            "bufferView" : 13,
            "componentType" : 5126,
            "count" : 16,
            "type" : "VEC3"
        },
        {
            "bufferView" : 14,
            "componentType" : 5126,
            "count" : 16,
            "type" : "VEC2"
        },
        {
            "bufferView" : 15,
            "componentType" : 5123,
            "count" : 24,
            "type" : "SCALAR"
        },
        {
            "bufferView" : 16,
            "componentType" : 5126,
            "count" : 180,
            "max" : [
                4,
                20,
                5.999994277954102
            ],
            "min" : [
                -10.000000953674316,
                7.999996185302734,
                -10.000003814697266
            ],
            "type" : "VEC3"
        },
        {
            "bufferView" : 17,
            "componentType" : 5126,
            "count" : 180,
            "type" : "VEC3"
        },
        {
            "bufferView" : 18,
            "componentType" : 5126,
            "count" : 180,
            "type" : "VEC2"
        },
        {
            "bufferView" : 19,
            "componentType" : 5123,
            "count" : 312,
            "type" : "SCALAR"
        },
        {
            "bufferView" : 20,
            "componentType" : 5126,
            "count" : 180,
            "max" : [
                2,
                19.999996185302734,
                7.999998569488525
            ],
            "min" : [
                -10.199999809265137,
                -4.76837158203125e-06,
                -10.200003623962402
            ],
            "type" : "VEC3"
        },
        {
            "bufferView" : 21,
            "componentType" : 5126,
            "count" : 180,
            "type" : "VEC3"
        },
        {
            "bufferView" : 22,
            "componentType" : 5126,
            "count" : 180,
            "type" : "VEC2"
        },
        {
            "bufferView" : 23,
            "componentType" : 5123,
            "count" : 276,
            "type" : "SCALAR"
        }
    ],
    "bufferViews" : [
        {
            "buffer" : 0,
            "byteLength" : 10452,
            "byteOffset" : 0
        },
        {
            "buffer" : 0,
            "byteLength" : 10452,
            "byteOffset" : 10452
        },
        {
            "buffer" : 0,
            "byteLength" : 6968,
            "byteOffset" : 20904
        },
        {
            "buffer" : 0,
            "byteLength" : 3978,
            "byteOffset" : 27872
        },
        {
            "buffer" : 0,
            "byteLength" : 10776,
            "byteOffset" : 31852
        },
        {
            "buffer" : 0,
            "byteLength" : 10776,
            "byteOffset" : 42628
        },
        {
            "buffer" : 0,
            "byteLength" : 7184,
            "byteOffset" : 53404
        },
        {
            "buffer" : 0,
            "byteLength" : 3024,
            "byteOffset" : 60588
        },
        {
            "buffer" : 0,
            "byteLength" : 7188,
            "byteOffset" : 63612
        },
        {
            "buffer" : 0,
            "byteLength" : 7188,
            "byteOffset" : 70800
        },
        {
            "buffer" : 0,
            "byteLength" : 4792,
            "byteOffset" : 77988
        },
        {
            "buffer" : 0,
            "byteLength" : 1968,
            "byteOffset" : 82780
        },
        {
            "buffer" : 0,
            "byteLength" : 192,
            "byteOffset" : 84748
        },
        {
            "buffer" : 0,
            "byteLength" : 192,
            "byteOffset" : 84940
        },
        {
            "buffer" : 0,
            "byteLength" : 128,
            "byteOffset" : 85132
        },
        {
            "buffer" : 0,
            "byteLength" : 48,
            "byteOffset" : 85260
        },
        {
            "buffer" : 0,
            "byteLength" : 2160,
            "byteOffset" : 85308
        },
        {
            "buffer" : 0,
            "byteLength" : 2160,
            "byteOffset" : 87468
        },
        {
            "buffer" : 0,
            "byteLength" : 1440,
            "byteOffset" : 89628
        },
        {
            "buffer" : 0,
            "byteLength" : 624,
            "byteOffset" : 91068
        },
        {
            "buffer" : 0,
            "byteLength" : 2160,
            "byteOffset" : 91692
        },
        {
            "buffer" : 0,
            "byteLength" : 2160,
            "byteOffset" : 93852
        },
        {
            "buffer" : 0,
            "byteLength" : 1440,
            "byteOffset" : 96012
        },
        {
            "buffer" : 0,
            "byteLength" : 552,
            "byteOffset" : 97452
        }
    ],
    "buffers" : [
        {
            "byteLength" : 98004,
            "uri" : "Area4.bin"
        }
    ]
}
