{
    "asset" : {
        "generator" : "Khronos glTF Blender I/O v1.1.46",
        "version" : "2.0"
    },
    "scene" : 0,
    "scenes" : [
        {
            "name" : "Scene",
            "nodes" : [
                0
            ]
        }
    ],
    "nodes" : [
        {
            "mesh" : 0,
            "name" : "Grid.001",
            "rotation" : [
                1,
                0,
                0,
                -1.6292068494294654e-07
            ],
            "translation" : [
                0,
                20,
                0
            ]
        }
    ],
    "materials" : [
        {
            "emissiveFactor" : [
                0,
                0,
                0
            ],
            "name" : "Ground",
            "pbrMetallicRoughness" : {
                "baseColorFactor" : [
                    1,
                    1,
                    1,
                    1
                ],
                "metallicFactor" : 0,
                "roughnessFactor" : 0.5
            }
        },
        {
            "emissiveFactor" : [
                0,
                0,
                0
            ],
            "name" : "OutWall",
            "normalTexture" : {
                "index" : 0,
                "texCoord" : 0
            },
            "pbrMetallicRoughness" : {
                "baseColorTexture" : {
                    "index" : 1,
                    "texCoord" : 0
                },
                "metallicFactor" : 0,
                "roughnessFactor" : 0.5
            }
        },
        {
            "emissiveFactor" : [
                0,
                0,
                0
            ],
            "name" : "InWall",
            "pbrMetallicRoughness" : {
                "baseColorFactor" : [
                    0.6920710802078247,
                    0.6920710802078247,
                    0.6920710802078247,
                    1
                ],
                "metallicFactor" : 0,
                "roughnessFactor" : 0.44999998807907104
            }
        },
        {
            "doubleSided" : true,
            "emissiveFactor" : [
                0,
                0,
                0
            ],
            "name" : "Dark",
            "pbrMetallicRoughness" : {
                "baseColorFactor" : [
                    0.05087608844041824,
                    0.05087608844041824,
                    0.05087608844041824,
                    1
                ],
                "metallicFactor" : 0,
                "roughnessFactor" : 0.5
            }
        }
    ],
    "meshes" : [
        {
            "name" : "Grid.001",
            "primitives" : [
                {
                    "attributes" : {
                        "POSITION" : 0,
                        "NORMAL" : 1,
                        "TEXCOORD_0" : 2
                    },
                    "indices" : 3,
                    "material" : 0
                },
                {
                    "attributes" : {
                        "POSITION" : 4,
                        "NORMAL" : 5,
                        "TEXCOORD_0" : 6
                    },
                    "indices" : 7,
                    "material" : 1
                },
                {
                    "attributes" : {
                        "POSITION" : 8,
                        "NORMAL" : 9,
                        "TEXCOORD_0" : 10
                    },
                    "indices" : 11,
                    "material" : 2
                },
                {
                    "attributes" : {
                        "POSITION" : 12,
                        "NORMAL" : 13,
                        "TEXCOORD_0" : 14
                    },
                    "indices" : 15,
                    "material" : 3
                }
            ]
        }
    ],
    "textures" : [
        {
            "source" : 0
        },
        {
            "source" : 1
        }
    ],
    "images" : [
        {
            "mimeType" : "image/png",
            "name" : "TileNormal",
            "uri" : "TileNormal.png"
        },
        {
            "mimeType" : "image/png",
            "name" : "Tile",
            "uri" : "Tile.png"
        }
    ],
    "accessors" : [
        {
            "bufferView" : 0,
            "componentType" : 5126,
            "count" : 754,
            "max" : [
                18.68505859375,
                20,
                10.027458190917969
            ],
            "min" : [
                -16.6495418548584,
                -0.6006205677986145,
                -16.04791259765625
            ],
            "type" : "VEC3"
        },
        {
            "bufferView" : 1,
            "componentType" : 5126,
            "count" : 754,
            "type" : "VEC3"
        },
        {
            "bufferView" : 2,
            "componentType" : 5126,
            "count" : 754,
            "type" : "VEC2"
        },
        {
            "bufferView" : 3,
            "componentType" : 5123,
            "count" : 1743,
            "type" : "SCALAR"
        },
        {
            "bufferView" : 4,
            "componentType" : 5126,
            "count" : 890,
            "max" : [
                10.000003814697266,
                20,
                10
            ],
            "min" : [
                -10.000001907348633,
                -2.86102294921875e-06,
                -10.000005722045898
            ],
            "type" : "VEC3"
        },
        {
            "bufferView" : 5,
            "componentType" : 5126,
            "count" : 890,
            "type" : "VEC3"
        },
        {
            "bufferView" : 6,
            "componentType" : 5126,
            "count" : 890,
            "type" : "VEC2"
        },
        {
            "bufferView" : 7,
            "componentType" : 5123,
            "count" : 1500,
            "type" : "SCALAR"
        },
        {
            "bufferView" : 8,
            "componentType" : 5126,
            "count" : 568,
            "max" : [
                18,
                20,
                9.999998092651367
            ],
            "min" : [
                -16,
                -5.36441984877456e-06,
                -16.0000057220459
            ],
            "type" : "VEC3"
        },
        {
            "bufferView" : 9,
            "componentType" : 5126,
            "count" : 568,
            "type" : "VEC3"
        },
        {
            "bufferView" : 10,
            "componentType" : 5126,
            "count" : 568,
            "type" : "VEC2"
        },
        {
            "bufferView" : 11,
            "componentType" : 5123,
            "count" : 1050,
            "type" : "SCALAR"
        },
        {
            "bufferView" : 12,
            "componentType" : 5126,
            "count" : 12,
            "max" : [
                -12,
                7.99999475479126,
                -4.000002384185791
            ],
            "min" : [
                -16,
                3.999995231628418,
                -4.000003814697266
            ],
            "type" : "VEC3"
        },
        {
            "bufferView" : 13,
            "componentType" : 5126,
            "count" : 12,
            "type" : "VEC3"
        },
        {
            "bufferView" : 14,
            "componentType" : 5126,
            "count" : 12,
            "type" : "VEC2"
        },
        {
            "bufferView" : 15,
            "componentType" : 5123,
            "count" : 24,
            "type" : "SCALAR"
        }
    ],
    "bufferViews" : [
        {
            "buffer" : 0,
            "byteLength" : 9048,
            "byteOffset" : 0
        },
        {
            "buffer" : 0,
            "byteLength" : 9048,
            "byteOffset" : 9048
        },
        {
            "buffer" : 0,
            "byteLength" : 6032,
            "byteOffset" : 18096
        },
        {
            "buffer" : 0,
            "byteLength" : 3486,
            "byteOffset" : 24128
        },
        {
            "buffer" : 0,
            "byteLength" : 10680,
            "byteOffset" : 27616
        },
        {
            "buffer" : 0,
            "byteLength" : 10680,
            "byteOffset" : 38296
        },
        {
            "buffer" : 0,
            "byteLength" : 7120,
            "byteOffset" : 48976
        },
        {
            "buffer" : 0,
            "byteLength" : 3000,
            "byteOffset" : 56096
        },
        {
            "buffer" : 0,
            "byteLength" : 6816,
            "byteOffset" : 59096
        },
        {
            "buffer" : 0,
            "byteLength" : 6816,
            "byteOffset" : 65912
        },
        {
            "buffer" : 0,
            "byteLength" : 4544,
            "byteOffset" : 72728
        },
        {
            "buffer" : 0,
            "byteLength" : 2100,
            "byteOffset" : 77272
        },
        {
            "buffer" : 0,
            "byteLength" : 144,
            "byteOffset" : 79372
        },
        {
            "buffer" : 0,
            "byteLength" : 144,
            "byteOffset" : 79516
        },
        {
            "buffer" : 0,
            "byteLength" : 96,
            "byteOffset" : 79660
        },
        {
            "buffer" : 0,
            "byteLength" : 48,
            "byteOffset" : 79756
        }
    ],
    "buffers" : [
        {
            "byteLength" : 79804,
            "uri" : "Area4.bin"
        }
    ]
}
