{
    "asset" : {
        "generator" : "Khronos glTF Blender I/O v1.1.46",
        "version" : "2.0"
    },
    "scene" : 0,
    "scenes" : [
        {
            "name" : "Scene",
            "nodes" : [
                0
            ]
        }
    ],
    "nodes" : [
        {
            "mesh" : 0,
            "name" : "Grid.001",
            "rotation" : [
                1,
                0,
                0,
                -1.6292068494294654e-07
            ],
            "translation" : [
                0,
                15,
                0
            ]
        }
    ],
    "materials" : [
        {
            "emissiveFactor" : [
                0,
                0,
                0
            ],
            "name" : "Ground",
            "pbrMetallicRoughness" : {
                "baseColorFactor" : [
                    0.800000011920929,
                    0.800000011920929,
                    0.800000011920929,
                    1
                ],
                "metallicFactor" : 0,
                "roughnessFactor" : 0.5
            }
        },
        {
            "emissiveFactor" : [
                0,
                0,
                0
            ],
            "name" : "OutWall",
            "normalTexture" : {
                "index" : 0,
                "texCoord" : 0
            },
            "pbrMetallicRoughness" : {
                "baseColorTexture" : {
                    "index" : 1,
                    "texCoord" : 0
                },
                "metallicFactor" : 0,
                "roughnessFactor" : 0.5
            }
        }
    ],
    "meshes" : [
        {
            "name" : "Grid.001",
            "primitives" : [
                {
                    "attributes" : {
                        "POSITION" : 0,
                        "NORMAL" : 1,
                        "TEXCOORD_0" : 2
                    },
                    "indices" : 3,
                    "material" : 0
                },
                {
                    "attributes" : {
                        "POSITION" : 4,
                        "NORMAL" : 5,
                        "TEXCOORD_0" : 6
                    },
                    "indices" : 7,
                    "material" : 1
                }
            ]
        }
    ],
    "textures" : [
        {
            "source" : 0
        },
        {
            "source" : 1
        }
    ],
    "images" : [
        {
            "mimeType" : "image/png",
            "name" : "TileNormal",
            "uri" : "TileNormal.png"
        },
        {
            "mimeType" : "image/png",
            "name" : "Tile",
            "uri" : "Tile.png"
        }
    ],
    "accessors" : [
        {
            "bufferView" : 0,
            "componentType" : 5126,
            "count" : 982,
            "max" : [
                15.000001907348633,
                15.000003814697266,
                15.000000953674316
            ],
            "min" : [
                -15.000000953674316,
                -15.000003814697266,
                -15.000004768371582
            ],
            "type" : "VEC3"
        },
        {
            "bufferView" : 1,
            "componentType" : 5126,
            "count" : 982,
            "type" : "VEC3"
        },
        {
            "bufferView" : 2,
            "componentType" : 5126,
            "count" : 982,
            "type" : "VEC2"
        },
        {
            "bufferView" : 3,
            "componentType" : 5123,
            "count" : 2700,
            "type" : "SCALAR"
        },
        {
            "bufferView" : 4,
            "componentType" : 5126,
            "count" : 3506,
            "max" : [
                15.000003814697266,
                15.000003814697266,
                15.000000953674316
            ],
            "min" : [
                -15.000001907348633,
                -15.000003814697266,
                -15.000004768371582
            ],
            "type" : "VEC3"
        },
        {
            "bufferView" : 5,
            "componentType" : 5126,
            "count" : 3506,
            "type" : "VEC3"
        },
        {
            "bufferView" : 6,
            "componentType" : 5126,
            "count" : 3506,
            "type" : "VEC2"
        },
        {
            "bufferView" : 7,
            "componentType" : 5123,
            "count" : 5400,
            "type" : "SCALAR"
        }
    ],
    "bufferViews" : [
        {
            "buffer" : 0,
            "byteLength" : 11784,
            "byteOffset" : 0
        },
        {
            "buffer" : 0,
            "byteLength" : 11784,
            "byteOffset" : 11784
        },
        {
            "buffer" : 0,
            "byteLength" : 7856,
            "byteOffset" : 23568
        },
        {
            "buffer" : 0,
            "byteLength" : 5400,
            "byteOffset" : 31424
        },
        {
            "buffer" : 0,
            "byteLength" : 42072,
            "byteOffset" : 36824
        },
        {
            "buffer" : 0,
            "byteLength" : 42072,
            "byteOffset" : 78896
        },
        {
            "buffer" : 0,
            "byteLength" : 28048,
            "byteOffset" : 120968
        },
        {
            "buffer" : 0,
            "byteLength" : 10800,
            "byteOffset" : 149016
        }
    ],
    "buffers" : [
        {
            "byteLength" : 159816,
            "uri" : "Area6.bin"
        }
    ]
}
