{
    "asset" : {
        "generator" : "Khronos glTF Blender I/O v1.1.46",
        "version" : "2.0"
    },
    "scene" : 0,
    "scenes" : [
        {
            "name" : "Scene",
            "nodes" : [
                0,
                1
            ]
        }
    ],
    "nodes" : [
        {
            "mesh" : 0,
            "name" : "Area2",
            "rotation" : [
                0,
                -0.7071067690849304,
                0,
                0.7071067690849304
            ]
        },
        {
            "mesh" : 1,
            "name" : "Area2.001",
            "rotation" : [
                0,
                -0.7071067690849304,
                0,
                0.7071067690849304
            ]
        }
    ],
    "materials" : [
        {
            "emissiveFactor" : [
                0,
                0,
                0
            ],
            "name" : "Ground",
            "pbrMetallicRoughness" : {
                "baseColorFactor" : [
                    1,
                    1,
                    1,
                    1
                ],
                "metallicFactor" : 0,
                "roughnessFactor" : 0.5
            }
        },
        {
            "emissiveFactor" : [
                0,
                0,
                0
            ],
            "name" : "InWall",
            "normalTexture" : {
                "index" : 0,
                "texCoord" : 0
            },
            "pbrMetallicRoughness" : {
                "baseColorFactor" : [
                    0.6038274168968201,
                    0.6038274168968201,
                    0.6038274168968201,
                    1
                ],
                "metallicFactor" : 0,
                "roughnessFactor" : 0.5
            }
        },
        {
            "emissiveFactor" : [
                0,
                0,
                0
            ],
            "name" : "OutWall",
            "normalTexture" : {
                "index" : 1,
                "texCoord" : 0
            },
            "pbrMetallicRoughness" : {
                "baseColorTexture" : {
                    "index" : 2,
                    "texCoord" : 0
                },
                "metallicFactor" : 0,
                "roughnessFactor" : 0.5
            }
        },
        {
            "doubleSided" : true,
            "emissiveFactor" : [
                0,
                0,
                0
            ],
            "name" : "Frame",
            "pbrMetallicRoughness" : {
                "baseColorFactor" : [
                    0.4479883313179016,
                    0.4479883313179016,
                    0.4479883313179016,
                    1
                ],
                "metallicFactor" : 0.5,
                "roughnessFactor" : 0.5
            }
        },
        {
            "doubleSided" : true,
            "emissiveFactor" : [
                0,
                0,
                0
            ],
            "name" : "InWall2",
            "normalTexture" : {
                "index" : 3,
                "texCoord" : 0
            },
            "pbrMetallicRoughness" : {
                "baseColorFactor" : [
                    1,
                    1,
                    1,
                    1
                ],
                "metallicFactor" : 0,
                "roughnessFactor" : 0.5
            }
        }
    ],
    "meshes" : [
        {
            "name" : "Grid.002",
            "primitives" : [
                {
                    "attributes" : {
                        "POSITION" : 0,
                        "NORMAL" : 1,
                        "TEXCOORD_0" : 2
                    },
                    "indices" : 3,
                    "material" : 0
                },
                {
                    "attributes" : {
                        "POSITION" : 4,
                        "NORMAL" : 5,
                        "TEXCOORD_0" : 6
                    },
                    "indices" : 7,
                    "material" : 1
                },
                {
                    "attributes" : {
                        "POSITION" : 8,
                        "NORMAL" : 9,
                        "TEXCOORD_0" : 10
                    },
                    "indices" : 11,
                    "material" : 2
                },
                {
                    "attributes" : {
                        "POSITION" : 12,
                        "NORMAL" : 13,
                        "TEXCOORD_0" : 14
                    },
                    "indices" : 15,
                    "material" : 3
                },
                {
                    "attributes" : {
                        "POSITION" : 16,
                        "NORMAL" : 17,
                        "TEXCOORD_0" : 18
                    },
                    "indices" : 19,
                    "material" : 4
                }
            ]
        },
        {
            "name" : "Grid.001",
            "primitives" : [
                {
                    "attributes" : {
                        "POSITION" : 20,
                        "NORMAL" : 21,
                        "TEXCOORD_0" : 22
                    },
                    "indices" : 23,
                    "material" : 0
                },
                {
                    "attributes" : {
                        "POSITION" : 24,
                        "NORMAL" : 25,
                        "TEXCOORD_0" : 26
                    },
                    "indices" : 27,
                    "material" : 1
                },
                {
                    "attributes" : {
                        "POSITION" : 28,
                        "NORMAL" : 29,
                        "TEXCOORD_0" : 30
                    },
                    "indices" : 31,
                    "material" : 2
                }
            ]
        }
    ],
    "textures" : [
        {
            "source" : 0
        },
        {
            "source" : 1
        },
        {
            "source" : 2
        },
        {
            "source" : 3
        }
    ],
    "images" : [
        {
            "mimeType" : "image/png",
            "name" : "IronNormal",
            "uri" : "IronNormal.png"
        },
        {
            "mimeType" : "image/png",
            "name" : "TileNormal",
            "uri" : "TileNormal.png"
        },
        {
            "mimeType" : "image/png",
            "name" : "Tile",
            "uri" : "Tile.png"
        },
        {
            "mimeType" : "image/png",
            "name" : "WallNormal",
            "uri" : "WallNormal.png"
        }
    ],
    "accessors" : [
        {
            "bufferView" : 0,
            "componentType" : 5126,
            "count" : 190,
            "max" : [
                10.000007629394531,
                20.00000762939453,
                11.042219161987305
            ],
            "min" : [
                -25.85637664794922,
                -6.999999523162842,
                -10.473852157592773
            ],
            "type" : "VEC3"
        },
        {
            "bufferView" : 1,
            "componentType" : 5126,
            "count" : 190,
            "type" : "VEC3"
        },
        {
            "bufferView" : 2,
            "componentType" : 5126,
            "count" : 190,
            "type" : "VEC2"
        },
        {
            "bufferView" : 3,
            "componentType" : 5123,
            "count" : 291,
            "type" : "SCALAR"
        },
        {
            "bufferView" : 4,
            "componentType" : 5126,
            "count" : 54,
            "max" : [
                10.000003814697266,
                12.000007629394531,
                10.199993133544922
            ],
            "min" : [
                -18,
                -6.999999523162842,
                -10.000006675720215
            ],
            "type" : "VEC3"
        },
        {
            "bufferView" : 5,
            "componentType" : 5126,
            "count" : 54,
            "type" : "VEC3"
        },
        {
            "bufferView" : 6,
            "componentType" : 5126,
            "count" : 54,
            "type" : "VEC2"
        },
        {
            "bufferView" : 7,
            "componentType" : 5123,
            "count" : 84,
            "type" : "SCALAR"
        },
        {
            "bufferView" : 8,
            "componentType" : 5126,
            "count" : 113,
            "max" : [
                10.000007629394531,
                20.00000762939453,
                10.000003814697266
            ],
            "min" : [
                -22,
                -6.999999523162842,
                -10.000012397766113
            ],
            "type" : "VEC3"
        },
        {
            "bufferView" : 9,
            "componentType" : 5126,
            "count" : 113,
            "type" : "VEC3"
        },
        {
            "bufferView" : 10,
            "componentType" : 5126,
            "count" : 113,
            "type" : "VEC2"
        },
        {
            "bufferView" : 11,
            "componentType" : 5123,
            "count" : 174,
            "type" : "SCALAR"
        },
        {
            "bufferView" : 12,
            "componentType" : 5126,
            "count" : 152,
            "max" : [
                10,
                12.000000953674316,
                10.199993133544922
            ],
            "min" : [
                -18,
                -6.999999523162842,
                -10.000006675720215
            ],
            "type" : "VEC3"
        },
        {
            "bufferView" : 13,
            "componentType" : 5126,
            "count" : 152,
            "type" : "VEC3"
        },
        {
            "bufferView" : 14,
            "componentType" : 5126,
            "count" : 152,
            "type" : "VEC2"
        },
        {
            "bufferView" : 15,
            "componentType" : 5123,
            "count" : 246,
            "type" : "SCALAR"
        },
        {
            "bufferView" : 16,
            "componentType" : 5126,
            "count" : 8,
            "max" : [
                6.000000476837158,
                3.999997615814209,
                2.000000238418579
            ],
            "min" : [
                -2.000000476837158,
                -7.152557373046875e-06,
                -6.000006675720215
            ],
            "type" : "VEC3"
        },
        {
            "bufferView" : 17,
            "componentType" : 5126,
            "count" : 8,
            "type" : "VEC3"
        },
        {
            "bufferView" : 18,
            "componentType" : 5126,
            "count" : 8,
            "type" : "VEC2"
        },
        {
            "bufferView" : 19,
            "componentType" : 5123,
            "count" : 12,
            "type" : "SCALAR"
        },
        {
            "bufferView" : 20,
            "componentType" : 5126,
            "count" : 102,
            "max" : [
                11.024459838867188,
                17.000017166137695,
                35.78281021118164
            ],
            "min" : [
                -10.809703826904297,
                5.004276752471924,
                9.999990463256836
            ],
            "type" : "VEC3"
        },
        {
            "bufferView" : 21,
            "componentType" : 5126,
            "count" : 102,
            "type" : "VEC3"
        },
        {
            "bufferView" : 22,
            "componentType" : 5126,
            "count" : 102,
            "type" : "VEC2"
        },
        {
            "bufferView" : 23,
            "componentType" : 5123,
            "count" : 174,
            "type" : "SCALAR"
        },
        {
            "bufferView" : 24,
            "componentType" : 5126,
            "count" : 28,
            "max" : [
                5.011114597320557,
                12.004280090332031,
                17.999996185302734
            ],
            "min" : [
                -0.992307186126709,
                5.0076985359191895,
                13.999992370605469
            ],
            "type" : "VEC3"
        },
        {
            "bufferView" : 25,
            "componentType" : 5126,
            "count" : 28,
            "type" : "VEC3"
        },
        {
            "bufferView" : 26,
            "componentType" : 5126,
            "count" : 28,
            "type" : "VEC2"
        },
        {
            "bufferView" : 27,
            "componentType" : 5123,
            "count" : 42,
            "type" : "SCALAR"
        },
        {
            "bufferView" : 28,
            "componentType" : 5126,
            "count" : 70,
            "max" : [
                10.000003814697266,
                16.004281997680664,
                33.999996185302734
            ],
            "min" : [
                -10,
                5.000006198883057,
                9.999990463256836
            ],
            "type" : "VEC3"
        },
        {
            "bufferView" : 29,
            "componentType" : 5126,
            "count" : 70,
            "type" : "VEC3"
        },
        {
            "bufferView" : 30,
            "componentType" : 5126,
            "count" : 70,
            "type" : "VEC2"
        },
        {
            "bufferView" : 31,
            "componentType" : 5123,
            "count" : 108,
            "type" : "SCALAR"
        }
    ],
    "bufferViews" : [
        {
            "buffer" : 0,
            "byteLength" : 2280,
            "byteOffset" : 0
        },
        {
            "buffer" : 0,
            "byteLength" : 2280,
            "byteOffset" : 2280
        },
        {
            "buffer" : 0,
            "byteLength" : 1520,
            "byteOffset" : 4560
        },
        {
            "buffer" : 0,
            "byteLength" : 582,
            "byteOffset" : 6080
        },
        {
            "buffer" : 0,
            "byteLength" : 648,
            "byteOffset" : 6664
        },
        {
            "buffer" : 0,
            "byteLength" : 648,
            "byteOffset" : 7312
        },
        {
            "buffer" : 0,
            "byteLength" : 432,
            "byteOffset" : 7960
        },
        {
            "buffer" : 0,
            "byteLength" : 168,
            "byteOffset" : 8392
        },
        {
            "buffer" : 0,
            "byteLength" : 1356,
            "byteOffset" : 8560
        },
        {
            "buffer" : 0,
            "byteLength" : 1356,
            "byteOffset" : 9916
        },
        {
            "buffer" : 0,
            "byteLength" : 904,
            "byteOffset" : 11272
        },
        {
            "buffer" : 0,
            "byteLength" : 348,
            "byteOffset" : 12176
        },
        {
            "buffer" : 0,
            "byteLength" : 1824,
            "byteOffset" : 12524
        },
        {
            "buffer" : 0,
            "byteLength" : 1824,
            "byteOffset" : 14348
        },
        {
            "buffer" : 0,
            "byteLength" : 1216,
            "byteOffset" : 16172
        },
        {
            "buffer" : 0,
            "byteLength" : 492,
            "byteOffset" : 17388
        },
        {
            "buffer" : 0,
            "byteLength" : 96,
            "byteOffset" : 17880
        },
        {
            "buffer" : 0,
            "byteLength" : 96,
            "byteOffset" : 17976
        },
        {
            "buffer" : 0,
            "byteLength" : 64,
            "byteOffset" : 18072
        },
        {
            "buffer" : 0,
            "byteLength" : 24,
            "byteOffset" : 18136
        },
        {
            "buffer" : 0,
            "byteLength" : 1224,
            "byteOffset" : 18160
        },
        {
            "buffer" : 0,
            "byteLength" : 1224,
            "byteOffset" : 19384
        },
        {
            "buffer" : 0,
            "byteLength" : 816,
            "byteOffset" : 20608
        },
        {
            "buffer" : 0,
            "byteLength" : 348,
            "byteOffset" : 21424
        },
        {
            "buffer" : 0,
            "byteLength" : 336,
            "byteOffset" : 21772
        },
        {
            "buffer" : 0,
            "byteLength" : 336,
            "byteOffset" : 22108
        },
        {
            "buffer" : 0,
            "byteLength" : 224,
            "byteOffset" : 22444
        },
        {
            "buffer" : 0,
            "byteLength" : 84,
            "byteOffset" : 22668
        },
        {
            "buffer" : 0,
            "byteLength" : 840,
            "byteOffset" : 22752
        },
        {
            "buffer" : 0,
            "byteLength" : 840,
            "byteOffset" : 23592
        },
        {
            "buffer" : 0,
            "byteLength" : 560,
            "byteOffset" : 24432
        },
        {
            "buffer" : 0,
            "byteLength" : 216,
            "byteOffset" : 24992
        }
    ],
    "buffers" : [
        {
            "byteLength" : 25208,
            "uri" : "Area2.bin"
        }
    ]
}
