{
    "asset" : {
        "generator" : "Khronos glTF Blender I/O v1.1.46",
        "version" : "2.0"
    },
    "scene" : 0,
    "scenes" : [
        {
            "name" : "Scene",
            "nodes" : [
                0,
                1
            ]
        }
    ],
    "nodes" : [
        {
            "mesh" : 0,
            "name" : "Area2",
            "rotation" : [
                0,
                -0.7071067690849304,
                0,
                0.7071067690849304
            ]
        },
        {
            "mesh" : 1,
            "name" : "Area2.001",
            "rotation" : [
                0,
                -0.7071067690849304,
                0,
                0.7071067690849304
            ]
        }
    ],
    "materials" : [
        {
            "emissiveFactor" : [
                0,
                0,
                0
            ],
            "name" : "Ground",
            "pbrMetallicRoughness" : {
                "baseColorFactor" : [
                    1,
                    1,
                    1,
                    1
                ],
                "metallicFactor" : 0,
                "roughnessFactor" : 0.5
            }
        },
        {
            "emissiveFactor" : [
                0,
                0,
                0
            ],
            "name" : "InWall",
            "pbrMetallicRoughness" : {
                "baseColorFactor" : [
                    0.4479883313179016,
                    0.4479883313179016,
                    0.4479883313179016,
                    1
                ],
                "metallicFactor" : 0,
                "roughnessFactor" : 0.5
            }
        },
        {
            "emissiveFactor" : [
                0,
                0,
                0
            ],
            "name" : "OutWall",
            "normalTexture" : {
                "index" : 0,
                "texCoord" : 0
            },
            "pbrMetallicRoughness" : {
                "baseColorTexture" : {
                    "index" : 1,
                    "texCoord" : 0
                },
                "metallicFactor" : 0,
                "roughnessFactor" : 0.5
            }
        },
        {
            "doubleSided" : true,
            "emissiveFactor" : [
                0,
                0,
                0
            ],
            "name" : "Dark",
            "pbrMetallicRoughness" : {
                "baseColorFactor" : [
                    0.035832010209560394,
                    0.035832010209560394,
                    0.035832010209560394,
                    1
                ],
                "metallicFactor" : 0,
                "roughnessFactor" : 0.5
            }
        }
    ],
    "meshes" : [
        {
            "name" : "Grid.002",
            "primitives" : [
                {
                    "attributes" : {
                        "POSITION" : 0,
                        "NORMAL" : 1,
                        "TEXCOORD_0" : 2
                    },
                    "indices" : 3,
                    "material" : 0
                },
                {
                    "attributes" : {
                        "POSITION" : 4,
                        "NORMAL" : 5,
                        "TEXCOORD_0" : 6
                    },
                    "indices" : 7,
                    "material" : 1
                },
                {
                    "attributes" : {
                        "POSITION" : 8,
                        "NORMAL" : 9,
                        "TEXCOORD_0" : 10
                    },
                    "indices" : 11,
                    "material" : 2
                }
            ]
        },
        {
            "name" : "Grid.001",
            "primitives" : [
                {
                    "attributes" : {
                        "POSITION" : 12,
                        "NORMAL" : 13,
                        "TEXCOORD_0" : 14
                    },
                    "indices" : 15,
                    "material" : 0
                },
                {
                    "attributes" : {
                        "POSITION" : 16,
                        "NORMAL" : 17,
                        "TEXCOORD_0" : 18
                    },
                    "indices" : 19,
                    "material" : 1
                },
                {
                    "attributes" : {
                        "POSITION" : 20,
                        "NORMAL" : 21,
                        "TEXCOORD_0" : 22
                    },
                    "indices" : 23,
                    "material" : 2
                },
                {
                    "attributes" : {
                        "POSITION" : 24,
                        "NORMAL" : 25,
                        "TEXCOORD_0" : 26
                    },
                    "indices" : 27,
                    "material" : 3
                }
            ]
        }
    ],
    "textures" : [
        {
            "source" : 0
        },
        {
            "source" : 1
        }
    ],
    "images" : [
        {
            "mimeType" : "image/png",
            "name" : "TileNormal",
            "uri" : "TileNormal.png"
        },
        {
            "mimeType" : "image/png",
            "name" : "Tile",
            "uri" : "Tile.png"
        }
    ],
    "accessors" : [
        {
            "bufferView" : 0,
            "componentType" : 5126,
            "count" : 88,
            "max" : [
                10.000007629394531,
                20.00000762939453,
                11.042219161987305
            ],
            "min" : [
                -25.85637664794922,
                -6.999999523162842,
                -10.473852157592773
            ],
            "type" : "VEC3"
        },
        {
            "bufferView" : 1,
            "componentType" : 5126,
            "count" : 88,
            "type" : "VEC3"
        },
        {
            "bufferView" : 2,
            "componentType" : 5126,
            "count" : 88,
            "type" : "VEC2"
        },
        {
            "bufferView" : 3,
            "componentType" : 5123,
            "count" : 132,
            "type" : "SCALAR"
        },
        {
            "bufferView" : 4,
            "componentType" : 5126,
            "count" : 60,
            "max" : [
                10.000003814697266,
                14.000007629394531,
                10
            ],
            "min" : [
                -10.000001907348633,
                -7.152557373046875e-06,
                -10.000006675720215
            ],
            "type" : "VEC3"
        },
        {
            "bufferView" : 5,
            "componentType" : 5126,
            "count" : 60,
            "type" : "VEC3"
        },
        {
            "bufferView" : 6,
            "componentType" : 5126,
            "count" : 60,
            "type" : "VEC2"
        },
        {
            "bufferView" : 7,
            "componentType" : 5123,
            "count" : 90,
            "type" : "SCALAR"
        },
        {
            "bufferView" : 8,
            "componentType" : 5126,
            "count" : 119,
            "max" : [
                10.000007629394531,
                20.00000762939453,
                10.000003814697266
            ],
            "min" : [
                -22,
                -6.999999523162842,
                -10.000012397766113
            ],
            "type" : "VEC3"
        },
        {
            "bufferView" : 9,
            "componentType" : 5126,
            "count" : 119,
            "type" : "VEC3"
        },
        {
            "bufferView" : 10,
            "componentType" : 5126,
            "count" : 119,
            "type" : "VEC2"
        },
        {
            "bufferView" : 11,
            "componentType" : 5123,
            "count" : 177,
            "type" : "SCALAR"
        },
        {
            "bufferView" : 12,
            "componentType" : 5126,
            "count" : 64,
            "max" : [
                11.024459838867188,
                17.000009536743164,
                23.38123893737793
            ],
            "min" : [
                -10.809703826904297,
                5.004276752471924,
                9.999990463256836
            ],
            "type" : "VEC3"
        },
        {
            "bufferView" : 13,
            "componentType" : 5126,
            "count" : 64,
            "type" : "VEC3"
        },
        {
            "bufferView" : 14,
            "componentType" : 5126,
            "count" : 64,
            "type" : "VEC2"
        },
        {
            "bufferView" : 15,
            "componentType" : 5123,
            "count" : 96,
            "type" : "SCALAR"
        },
        {
            "bufferView" : 16,
            "componentType" : 5126,
            "count" : 28,
            "max" : [
                5.011114597320557,
                12.004280090332031,
                17.999996185302734
            ],
            "min" : [
                -0.992307186126709,
                5.0076985359191895,
                13.999992370605469
            ],
            "type" : "VEC3"
        },
        {
            "bufferView" : 17,
            "componentType" : 5126,
            "count" : 28,
            "type" : "VEC3"
        },
        {
            "bufferView" : 18,
            "componentType" : 5126,
            "count" : 28,
            "type" : "VEC2"
        },
        {
            "bufferView" : 19,
            "componentType" : 5123,
            "count" : 42,
            "type" : "SCALAR"
        },
        {
            "bufferView" : 20,
            "componentType" : 5126,
            "count" : 56,
            "max" : [
                10.000003814697266,
                16.004281997680664,
                21.999996185302734
            ],
            "min" : [
                -10,
                5.000006198883057,
                9.999990463256836
            ],
            "type" : "VEC3"
        },
        {
            "bufferView" : 21,
            "componentType" : 5126,
            "count" : 56,
            "type" : "VEC3"
        },
        {
            "bufferView" : 22,
            "componentType" : 5126,
            "count" : 56,
            "type" : "VEC2"
        },
        {
            "bufferView" : 23,
            "componentType" : 5123,
            "count" : 84,
            "type" : "SCALAR"
        },
        {
            "bufferView" : 24,
            "componentType" : 5126,
            "count" : 4,
            "max" : [
                -5.988885879516602,
                9.004283905029297,
                21.999996185302734
            ],
            "min" : [
                -9.988885879516602,
                5.004282474517822,
                21.999996185302734
            ],
            "type" : "VEC3"
        },
        {
            "bufferView" : 25,
            "componentType" : 5126,
            "count" : 4,
            "type" : "VEC3"
        },
        {
            "bufferView" : 26,
            "componentType" : 5126,
            "count" : 4,
            "type" : "VEC2"
        },
        {
            "bufferView" : 27,
            "componentType" : 5123,
            "count" : 6,
            "type" : "SCALAR"
        }
    ],
    "bufferViews" : [
        {
            "buffer" : 0,
            "byteLength" : 1056,
            "byteOffset" : 0
        },
        {
            "buffer" : 0,
            "byteLength" : 1056,
            "byteOffset" : 1056
        },
        {
            "buffer" : 0,
            "byteLength" : 704,
            "byteOffset" : 2112
        },
        {
            "buffer" : 0,
            "byteLength" : 264,
            "byteOffset" : 2816
        },
        {
            "buffer" : 0,
            "byteLength" : 720,
            "byteOffset" : 3080
        },
        {
            "buffer" : 0,
            "byteLength" : 720,
            "byteOffset" : 3800
        },
        {
            "buffer" : 0,
            "byteLength" : 480,
            "byteOffset" : 4520
        },
        {
            "buffer" : 0,
            "byteLength" : 180,
            "byteOffset" : 5000
        },
        {
            "buffer" : 0,
            "byteLength" : 1428,
            "byteOffset" : 5180
        },
        {
            "buffer" : 0,
            "byteLength" : 1428,
            "byteOffset" : 6608
        },
        {
            "buffer" : 0,
            "byteLength" : 952,
            "byteOffset" : 8036
        },
        {
            "buffer" : 0,
            "byteLength" : 354,
            "byteOffset" : 8988
        },
        {
            "buffer" : 0,
            "byteLength" : 768,
            "byteOffset" : 9344
        },
        {
            "buffer" : 0,
            "byteLength" : 768,
            "byteOffset" : 10112
        },
        {
            "buffer" : 0,
            "byteLength" : 512,
            "byteOffset" : 10880
        },
        {
            "buffer" : 0,
            "byteLength" : 192,
            "byteOffset" : 11392
        },
        {
            "buffer" : 0,
            "byteLength" : 336,
            "byteOffset" : 11584
        },
        {
            "buffer" : 0,
            "byteLength" : 336,
            "byteOffset" : 11920
        },
        {
            "buffer" : 0,
            "byteLength" : 224,
            "byteOffset" : 12256
        },
        {
            "buffer" : 0,
            "byteLength" : 84,
            "byteOffset" : 12480
        },
        {
            "buffer" : 0,
            "byteLength" : 672,
            "byteOffset" : 12564
        },
        {
            "buffer" : 0,
            "byteLength" : 672,
            "byteOffset" : 13236
        },
        {
            "buffer" : 0,
            "byteLength" : 448,
            "byteOffset" : 13908
        },
        {
            "buffer" : 0,
            "byteLength" : 168,
            "byteOffset" : 14356
        },
        {
            "buffer" : 0,
            "byteLength" : 48,
            "byteOffset" : 14524
        },
        {
            "buffer" : 0,
            "byteLength" : 48,
            "byteOffset" : 14572
        },
        {
            "buffer" : 0,
            "byteLength" : 32,
            "byteOffset" : 14620
        },
        {
            "buffer" : 0,
            "byteLength" : 12,
            "byteOffset" : 14652
        }
    ],
    "buffers" : [
        {
            "byteLength" : 14664,
            "uri" : "Area2.bin"
        }
    ]
}
