{
    "asset" : {
        "generator" : "Khronos glTF Blender I/O v1.1.46",
        "version" : "2.0"
    },
    "scene" : 0,
    "scenes" : [
        {
            "name" : "Scene",
            "nodes" : [
                0
            ]
        }
    ],
    "nodes" : [
        {
            "mesh" : 0,
            "name" : "Grid.001"
        }
    ],
    "materials" : [
        {
            "emissiveFactor" : [
                0,
                0,
                0
            ],
            "name" : "InWall",
            "pbrMetallicRoughness" : {
                "baseColorFactor" : [
                    0.6920710802078247,
                    0.6920710802078247,
                    0.6920710802078247,
                    1
                ],
                "metallicFactor" : 0,
                "roughnessFactor" : 0.44999998807907104
            }
        },
        {
            "emissiveFactor" : [
                0,
                0,
                0
            ],
            "name" : "Wall",
            "normalTexture" : {
                "index" : 0,
                "texCoord" : 0
            },
            "pbrMetallicRoughness" : {
                "baseColorTexture" : {
                    "index" : 1,
                    "texCoord" : 0
                },
                "metallicFactor" : 0,
                "roughnessFactor" : 0.5
            }
        },
        {
            "emissiveFactor" : [
                0,
                0,
                0
            ],
            "name" : "Ground",
            "pbrMetallicRoughness" : {
                "baseColorFactor" : [
                    1,
                    1,
                    1,
                    1
                ],
                "metallicFactor" : 0,
                "roughnessFactor" : 0.5
            }
        },
        {
            "doubleSided" : true,
            "emissiveFactor" : [
                0,
                0,
                0
            ],
            "name" : "Hide",
            "pbrMetallicRoughness" : {
                "baseColorFactor" : [
                    0.800000011920929,
                    0.800000011920929,
                    0.800000011920929,
                    0
                ],
                "metallicFactor" : 0,
                "roughnessFactor" : 0.5
            }
        },
        {
            "doubleSided" : true,
            "emissiveFactor" : [
                0,
                0,
                0
            ],
            "name" : "Dark",
            "pbrMetallicRoughness" : {
                "baseColorFactor" : [
                    0.04518425092101097,
                    0.04518425092101097,
                    0.04518425092101097,
                    1
                ],
                "metallicFactor" : 0,
                "roughnessFactor" : 0.5
            }
        }
    ],
    "meshes" : [
        {
            "name" : "Grid.001",
            "primitives" : [
                {
                    "attributes" : {
                        "POSITION" : 0,
                        "NORMAL" : 1,
                        "TEXCOORD_0" : 2
                    },
                    "indices" : 3,
                    "material" : 0
                },
                {
                    "attributes" : {
                        "POSITION" : 4,
                        "NORMAL" : 5,
                        "TEXCOORD_0" : 6
                    },
                    "indices" : 7,
                    "material" : 1
                },
                {
                    "attributes" : {
                        "POSITION" : 8,
                        "NORMAL" : 9,
                        "TEXCOORD_0" : 10
                    },
                    "indices" : 11,
                    "material" : 2
                },
                {
                    "attributes" : {
                        "POSITION" : 12,
                        "NORMAL" : 13,
                        "TEXCOORD_0" : 14
                    },
                    "indices" : 15,
                    "material" : 3
                },
                {
                    "attributes" : {
                        "POSITION" : 16,
                        "NORMAL" : 17,
                        "TEXCOORD_0" : 18
                    },
                    "indices" : 19,
                    "material" : 4
                }
            ]
        }
    ],
    "textures" : [
        {
            "source" : 0
        },
        {
            "source" : 1
        }
    ],
    "images" : [
        {
            "mimeType" : "image/png",
            "name" : "TileNormal",
            "uri" : "TileNormal.png"
        },
        {
            "mimeType" : "image/png",
            "name" : "Tile",
            "uri" : "Tile.png"
        }
    ],
    "accessors" : [
        {
            "bufferView" : 0,
            "componentType" : 5126,
            "count" : 93,
            "max" : [
                10.00000286102295,
                16.000003814697266,
                9.999992370605469
            ],
            "min" : [
                -16.0000057220459,
                -7.788235052430537e-07,
                -10.00001335144043
            ],
            "type" : "VEC3"
        },
        {
            "bufferView" : 1,
            "componentType" : 5126,
            "count" : 93,
            "type" : "VEC3"
        },
        {
            "bufferView" : 2,
            "componentType" : 5126,
            "count" : 93,
            "type" : "VEC2"
        },
        {
            "bufferView" : 3,
            "componentType" : 5123,
            "count" : 141,
            "type" : "SCALAR"
        },
        {
            "bufferView" : 4,
            "componentType" : 5126,
            "count" : 115,
            "max" : [
                10.00000286102295,
                20.00000762939453,
                10.00000286102295
            ],
            "min" : [
                -10.000004768371582,
                -7.708835255471058e-06,
                -10.000015258789062
            ],
            "type" : "VEC3"
        },
        {
            "bufferView" : 5,
            "componentType" : 5126,
            "count" : 115,
            "type" : "VEC3"
        },
        {
            "bufferView" : 6,
            "componentType" : 5126,
            "count" : 115,
            "type" : "VEC2"
        },
        {
            "bufferView" : 7,
            "componentType" : 5123,
            "count" : 195,
            "type" : "SCALAR"
        },
        {
            "bufferView" : 8,
            "componentType" : 5126,
            "count" : 121,
            "max" : [
                10.00000286102295,
                20.00000762939453,
                10.00000286102295
            ],
            "min" : [
                -16.000001907348633,
                -7.708835255471058e-06,
                -10.010000228881836
            ],
            "type" : "VEC3"
        },
        {
            "bufferView" : 9,
            "componentType" : 5126,
            "count" : 121,
            "type" : "VEC3"
        },
        {
            "bufferView" : 10,
            "componentType" : 5126,
            "count" : 121,
            "type" : "VEC2"
        },
        {
            "bufferView" : 11,
            "componentType" : 5123,
            "count" : 195,
            "type" : "SCALAR"
        },
        {
            "bufferView" : 12,
            "componentType" : 5126,
            "count" : 8,
            "max" : [
                4.001044750213623,
                16.062122344970703,
                11.185401916503906
            ],
            "min" : [
                -16.22276496887207,
                4.560325622558594,
                -11.185422897338867
            ],
            "type" : "VEC3"
        },
        {
            "bufferView" : 13,
            "componentType" : 5126,
            "count" : 8,
            "type" : "VEC3"
        },
        {
            "bufferView" : 14,
            "componentType" : 5126,
            "count" : 8,
            "type" : "VEC2"
        },
        {
            "bufferView" : 15,
            "componentType" : 5123,
            "count" : 12,
            "type" : "SCALAR"
        },
        {
            "bufferView" : 16,
            "componentType" : 5126,
            "count" : 4,
            "max" : [
                -11.999999046325684,
                16.000003814697266,
                -6.000006198883057
            ],
            "min" : [
                -16.000001907348633,
                12.000000953674316,
                -6.000010013580322
            ],
            "type" : "VEC3"
        },
        {
            "bufferView" : 17,
            "componentType" : 5126,
            "count" : 4,
            "type" : "VEC3"
        },
        {
            "bufferView" : 18,
            "componentType" : 5126,
            "count" : 4,
            "type" : "VEC2"
        },
        {
            "bufferView" : 19,
            "componentType" : 5123,
            "count" : 6,
            "type" : "SCALAR"
        }
    ],
    "bufferViews" : [
        {
            "buffer" : 0,
            "byteLength" : 1116,
            "byteOffset" : 0
        },
        {
            "buffer" : 0,
            "byteLength" : 1116,
            "byteOffset" : 1116
        },
        {
            "buffer" : 0,
            "byteLength" : 744,
            "byteOffset" : 2232
        },
        {
            "buffer" : 0,
            "byteLength" : 282,
            "byteOffset" : 2976
        },
        {
            "buffer" : 0,
            "byteLength" : 1380,
            "byteOffset" : 3260
        },
        {
            "buffer" : 0,
            "byteLength" : 1380,
            "byteOffset" : 4640
        },
        {
            "buffer" : 0,
            "byteLength" : 920,
            "byteOffset" : 6020
        },
        {
            "buffer" : 0,
            "byteLength" : 390,
            "byteOffset" : 6940
        },
        {
            "buffer" : 0,
            "byteLength" : 1452,
            "byteOffset" : 7332
        },
        {
            "buffer" : 0,
            "byteLength" : 1452,
            "byteOffset" : 8784
        },
        {
            "buffer" : 0,
            "byteLength" : 968,
            "byteOffset" : 10236
        },
        {
            "buffer" : 0,
            "byteLength" : 390,
            "byteOffset" : 11204
        },
        {
            "buffer" : 0,
            "byteLength" : 96,
            "byteOffset" : 11596
        },
        {
            "buffer" : 0,
            "byteLength" : 96,
            "byteOffset" : 11692
        },
        {
            "buffer" : 0,
            "byteLength" : 64,
            "byteOffset" : 11788
        },
        {
            "buffer" : 0,
            "byteLength" : 24,
            "byteOffset" : 11852
        },
        {
            "buffer" : 0,
            "byteLength" : 48,
            "byteOffset" : 11876
        },
        {
            "buffer" : 0,
            "byteLength" : 48,
            "byteOffset" : 11924
        },
        {
            "buffer" : 0,
            "byteLength" : 32,
            "byteOffset" : 11972
        },
        {
            "buffer" : 0,
            "byteLength" : 12,
            "byteOffset" : 12004
        }
    ],
    "buffers" : [
        {
            "byteLength" : 12016,
            "uri" : "Area1.bin"
        }
    ]
}
