{
    "asset" : {
        "generator" : "Khronos glTF Blender I/O v1.1.46",
        "version" : "2.0"
    },
    "scene" : 0,
    "scenes" : [
        {
            "name" : "Scene",
            "nodes" : [
                0,
                1
            ]
        }
    ],
    "nodes" : [
        {
            "mesh" : 0,
            "name" : "Right",
            "translation" : [
                1,
                2,
                0
            ]
        },
        {
            "mesh" : 1,
            "name" : "Left",
            "translation" : [
                -1,
                2,
                0
            ]
        }
    ],
    "animations" : [
        {
            "channels" : [
                {
                    "sampler" : 0,
                    "target" : {
                        "node" : 0,
                        "path" : "translation"
                    }
                },
                {
                    "sampler" : 1,
                    "target" : {
                        "node" : 1,
                        "path" : "translation"
                    }
                }
            ],
            "name" : "Close",
            "samplers" : [
                {
                    "input" : 14,
                    "interpolation" : "LINEAR",
                    "output" : 15
                },
                {
                    "input" : 14,
                    "interpolation" : "LINEAR",
                    "output" : 16
                }
            ]
        },
        {
            "channels" : [
                {
                    "sampler" : 0,
                    "target" : {
                        "node" : 0,
                        "path" : "translation"
                    }
                },
                {
                    "sampler" : 1,
                    "target" : {
                        "node" : 1,
                        "path" : "translation"
                    }
                }
            ],
            "name" : "Open",
            "samplers" : [
                {
                    "input" : 14,
                    "interpolation" : "LINEAR",
                    "output" : 17
                },
                {
                    "input" : 14,
                    "interpolation" : "LINEAR",
                    "output" : 18
                }
            ]
        }
    ],
    "materials" : [
        {
            "doubleSided" : true,
            "emissiveFactor" : [
                0,
                0,
                0
            ],
            "name" : "Material",
            "pbrMetallicRoughness" : {
                "baseColorFactor" : [
                    1,
                    1,
                    1,
                    1
                ],
                "metallicFactor" : 0,
                "roughnessFactor" : 0.4000000059604645
            }
        },
        {
            "doubleSided" : true,
            "emissiveFactor" : [
                0,
                0,
                0
            ],
            "name" : "Material.001",
            "pbrMetallicRoughness" : {
                "baseColorFactor" : [
                    0.6634610891342163,
                    0.6634610891342163,
                    0.6634610891342163,
                    1
                ],
                "metallicFactor" : 0,
                "roughnessFactor" : 0.5
            }
        }
    ],
    "meshes" : [
        {
            "name" : "Cube.003",
            "primitives" : [
                {
                    "attributes" : {
                        "POSITION" : 0,
                        "NORMAL" : 1,
                        "TEXCOORD_0" : 2
                    },
                    "indices" : 3,
                    "material" : 0
                },
                {
                    "attributes" : {
                        "POSITION" : 4,
                        "NORMAL" : 5,
                        "TEXCOORD_0" : 6
                    },
                    "indices" : 7,
                    "material" : 1
                }
            ]
        },
        {
            "name" : "Cube.004",
            "primitives" : [
                {
                    "attributes" : {
                        "POSITION" : 8,
                        "NORMAL" : 9,
                        "TEXCOORD_0" : 10
                    },
                    "indices" : 3,
                    "material" : 0
                },
                {
                    "attributes" : {
                        "POSITION" : 11,
                        "NORMAL" : 12,
                        "TEXCOORD_0" : 13
                    },
                    "indices" : 7,
                    "material" : 1
                }
            ]
        }
    ],
    "accessors" : [
        {
            "bufferView" : 0,
            "componentType" : 5126,
            "count" : 144,
            "max" : [
                1,
                2,
                0.25
            ],
            "min" : [
                -1,
                -2,
                -0.25
            ],
            "type" : "VEC3"
        },
        {
            "bufferView" : 1,
            "componentType" : 5126,
            "count" : 144,
            "type" : "VEC3"
        },
        {
            "bufferView" : 2,
            "componentType" : 5126,
            "count" : 144,
            "type" : "VEC2"
        },
        {
            "bufferView" : 3,
            "componentType" : 5123,
            "count" : 216,
            "type" : "SCALAR"
        },
        {
            "bufferView" : 4,
            "componentType" : 5126,
            "count" : 8,
            "max" : [
                0.17333155870437622,
                1.25,
                0.15000000596046448
            ],
            "min" : [
                -0.17748886346817017,
                -1.25,
                -0.15000000596046448
            ],
            "type" : "VEC3"
        },
        {
            "bufferView" : 5,
            "componentType" : 5126,
            "count" : 8,
            "type" : "VEC3"
        },
        {
            "bufferView" : 6,
            "componentType" : 5126,
            "count" : 8,
            "type" : "VEC2"
        },
        {
            "bufferView" : 7,
            "componentType" : 5123,
            "count" : 12,
            "type" : "SCALAR"
        },
        {
            "bufferView" : 8,
            "componentType" : 5126,
            "count" : 144,
            "max" : [
                1,
                2,
                0.25
            ],
            "min" : [
                -1,
                -2,
                -0.25
            ],
            "type" : "VEC3"
        },
        {
            "bufferView" : 9,
            "componentType" : 5126,
            "count" : 144,
            "type" : "VEC3"
        },
        {
            "bufferView" : 10,
            "componentType" : 5126,
            "count" : 144,
            "type" : "VEC2"
        },
        {
            "bufferView" : 11,
            "componentType" : 5126,
            "count" : 8,
            "max" : [
                0.17333155870437622,
                1.25,
                0.15000000596046448
            ],
            "min" : [
                -0.17748886346817017,
                -1.25,
                -0.15000000596046448
            ],
            "type" : "VEC3"
        },
        {
            "bufferView" : 12,
            "componentType" : 5126,
            "count" : 8,
            "type" : "VEC3"
        },
        {
            "bufferView" : 13,
            "componentType" : 5126,
            "count" : 8,
            "type" : "VEC2"
        },
        {
            "bufferView" : 14,
            "componentType" : 5126,
            "count" : 21,
            "max" : [
                0.8333333333333334
            ],
            "min" : [
                0
            ],
            "type" : "SCALAR"
        },
        {
            "bufferView" : 15,
            "componentType" : 5126,
            "count" : 21,
            "type" : "VEC3"
        },
        {
            "bufferView" : 16,
            "componentType" : 5126,
            "count" : 21,
            "type" : "VEC3"
        },
        {
            "bufferView" : 17,
            "componentType" : 5126,
            "count" : 21,
            "type" : "VEC3"
        },
        {
            "bufferView" : 18,
            "componentType" : 5126,
            "count" : 21,
            "type" : "VEC3"
        }
    ],
    "bufferViews" : [
        {
            "buffer" : 0,
            "byteLength" : 1728,
            "byteOffset" : 0
        },
        {
            "buffer" : 0,
            "byteLength" : 1728,
            "byteOffset" : 1728
        },
        {
            "buffer" : 0,
            "byteLength" : 1152,
            "byteOffset" : 3456
        },
        {
            "buffer" : 0,
            "byteLength" : 432,
            "byteOffset" : 4608
        },
        {
            "buffer" : 0,
            "byteLength" : 96,
            "byteOffset" : 5040
        },
        {
            "buffer" : 0,
            "byteLength" : 96,
            "byteOffset" : 5136
        },
        {
            "buffer" : 0,
            "byteLength" : 64,
            "byteOffset" : 5232
        },
        {
            "buffer" : 0,
            "byteLength" : 24,
            "byteOffset" : 5296
        },
        {
            "buffer" : 0,
            "byteLength" : 1728,
            "byteOffset" : 5320
        },
        {
            "buffer" : 0,
            "byteLength" : 1728,
            "byteOffset" : 7048
        },
        {
            "buffer" : 0,
            "byteLength" : 1152,
            "byteOffset" : 8776
        },
        {
            "buffer" : 0,
            "byteLength" : 96,
            "byteOffset" : 9928
        },
        {
            "buffer" : 0,
            "byteLength" : 96,
            "byteOffset" : 10024
        },
        {
            "buffer" : 0,
            "byteLength" : 64,
            "byteOffset" : 10120
        },
        {
            "buffer" : 0,
            "byteLength" : 84,
            "byteOffset" : 10184
        },
        {
            "buffer" : 0,
            "byteLength" : 252,
            "byteOffset" : 10268
        },
        {
            "buffer" : 0,
            "byteLength" : 252,
            "byteOffset" : 10520
        },
        {
            "buffer" : 0,
            "byteLength" : 252,
            "byteOffset" : 10772
        },
        {
            "buffer" : 0,
            "byteLength" : 252,
            "byteOffset" : 11024
        }
    ],
    "buffers" : [
        {
            "byteLength" : 11276,
            "uri" : "Door.bin"
        }
    ]
}
