{
    "asset" : {
        "generator" : "Khronos glTF Blender I/O v1.1.46",
        "version" : "2.0"
    },
    "scene" : 0,
    "scenes" : [
        {
            "name" : "Scene",
            "nodes" : [
                0,
                1,
                2
            ]
        }
    ],
    "nodes" : [
        {
            "name" : "Light",
            "rotation" : [
                0.16907575726509094,
                0.7558803558349609,
                -0.27217137813568115,
                0.570947527885437
            ],
            "translation" : [
                4.076245307922363,
                5.903861999511719,
                -1.0054539442062378
            ]
        },
        {
            "name" : "Camera",
            "rotation" : [
                0.483536034822464,
                0.33687159419059753,
                -0.20870360732078552,
                0.7804827094078064
            ],
            "translation" : [
                7.358891487121582,
                4.958309173583984,
                6.925790786743164
            ]
        },
        {
            "mesh" : 0,
            "name" : "Sphere"
        }
    ],
    "materials" : [
        {
            "doubleSided" : true,
            "emissiveFactor" : [
                0,
                0,
                0
            ],
            "name" : "Material.003",
            "pbrMetallicRoughness" : {
                "baseColorFactor" : [
                    1,
                    1,
                    1,
                    1
                ],
                "metallicFactor" : 0,
                "roughnessFactor" : 0.5
            }
        },
        {
            "doubleSided" : true,
            "emissiveFactor" : [
                0.030715594068169594,
                0.06078580394387245,
                0.10653924196958542
            ],
            "name" : "Material.004",
            "pbrMetallicRoughness" : {
                "baseColorFactor" : [
                    0.0159962959587574,
                    0.029556848108768463,
                    0.04970657452940941,
                    1
                ],
                "metallicFactor" : 0,
                "roughnessFactor" : 0.5
            }
        },
        {
            "alphaMode" : "BLEND",
            "doubleSided" : true,
            "emissiveFactor" : [
                0,
                0,
                0
            ],
            "name" : "Material.005",
            "pbrMetallicRoughness" : {
                "baseColorFactor" : [
                    0.800000011920929,
                    0.800000011920929,
                    0.800000011920929,
                    0
                ],
                "metallicFactor" : 0,
                "roughnessFactor" : 0.5
            }
        }
    ],
    "meshes" : [
        {
            "name" : "Sphere.001",
            "primitives" : [
                {
                    "attributes" : {
                        "POSITION" : 0,
                        "NORMAL" : 1,
                        "TEXCOORD_0" : 2
                    },
                    "indices" : 3,
                    "material" : 0
                },
                {
                    "attributes" : {
                        "POSITION" : 4,
                        "NORMAL" : 5,
                        "TEXCOORD_0" : 6
                    },
                    "indices" : 7,
                    "material" : 1
                },
                {
                    "attributes" : {
                        "POSITION" : 8,
                        "NORMAL" : 9,
                        "TEXCOORD_0" : 10
                    },
                    "indices" : 11,
                    "material" : 2
                }
            ]
        }
    ],
    "accessors" : [
        {
            "bufferView" : 0,
            "componentType" : 5126,
            "count" : 1950,
            "max" : [
                0.9951860308647156,
                1,
                0.9951871633529663
            ],
            "min" : [
                -0.9951865077018738,
                -1,
                -0.9951860904693604
            ],
            "type" : "VEC3"
        },
        {
            "bufferView" : 1,
            "componentType" : 5126,
            "count" : 1950,
            "type" : "VEC3"
        },
        {
            "bufferView" : 2,
            "componentType" : 5126,
            "count" : 1950,
            "type" : "VEC2"
        },
        {
            "bufferView" : 3,
            "componentType" : 5123,
            "count" : 8928,
            "type" : "SCALAR"
        },
        {
            "bufferView" : 4,
            "componentType" : 5126,
            "count" : 384,
            "max" : [
                0.9670364260673523,
                0.09478587657213211,
                0.967037558555603
            ],
            "min" : [
                -0.9670369029045105,
                -0.09478620439767838,
                -0.9670349955558777
            ],
            "type" : "VEC3"
        },
        {
            "bufferView" : 5,
            "componentType" : 5126,
            "count" : 384,
            "type" : "VEC3"
        },
        {
            "bufferView" : 6,
            "componentType" : 5126,
            "count" : 384,
            "type" : "VEC2"
        },
        {
            "bufferView" : 7,
            "componentType" : 5123,
            "count" : 576,
            "type" : "SCALAR"
        },
        {
            "bufferView" : 8,
            "componentType" : 5126,
            "count" : 147,
            "max" : [
                1.0000014305114746,
                0.09801701456308365,
                1.0000026226043701
            ],
            "min" : [
                -1.0000020265579224,
                -0.09801734238862991,
                -1
            ],
            "type" : "VEC3"
        },
        {
            "bufferView" : 9,
            "componentType" : 5126,
            "count" : 147,
            "type" : "VEC3"
        },
        {
            "bufferView" : 10,
            "componentType" : 5126,
            "count" : 147,
            "type" : "VEC2"
        },
        {
            "bufferView" : 11,
            "componentType" : 5123,
            "count" : 576,
            "type" : "SCALAR"
        }
    ],
    "bufferViews" : [
        {
            "buffer" : 0,
            "byteLength" : 23400,
            "byteOffset" : 0
        },
        {
            "buffer" : 0,
            "byteLength" : 23400,
            "byteOffset" : 23400
        },
        {
            "buffer" : 0,
            "byteLength" : 15600,
            "byteOffset" : 46800
        },
        {
            "buffer" : 0,
            "byteLength" : 17856,
            "byteOffset" : 62400
        },
        {
            "buffer" : 0,
            "byteLength" : 4608,
            "byteOffset" : 80256
        },
        {
            "buffer" : 0,
            "byteLength" : 4608,
            "byteOffset" : 84864
        },
        {
            "buffer" : 0,
            "byteLength" : 3072,
            "byteOffset" : 89472
        },
        {
            "buffer" : 0,
            "byteLength" : 1152,
            "byteOffset" : 92544
        },
        {
            "buffer" : 0,
            "byteLength" : 1764,
            "byteOffset" : 93696
        },
        {
            "buffer" : 0,
            "byteLength" : 1764,
            "byteOffset" : 95460
        },
        {
            "buffer" : 0,
            "byteLength" : 1176,
            "byteOffset" : 97224
        },
        {
            "buffer" : 0,
            "byteLength" : 1152,
            "byteOffset" : 98400
        }
    ],
    "buffers" : [
        {
            "byteLength" : 99552,
            "uri" : "Ball.bin"
        }
    ]
}
