{
    "asset" : {
        "generator" : "Khronos glTF Blender I/O v1.1.46",
        "version" : "2.0"
    },
    "scene" : 0,
    "scenes" : [
        {
            "name" : "Scene",
            "nodes" : [
                0,
                1
            ]
        }
    ],
    "nodes" : [
        {
            "mesh" : 0,
            "name" : "Cylinder",
            "scale" : [
                0.5,
                -0.034195661544799805,
                0.5
            ],
            "translation" : [
                0,
                0.23632827401161194,
                0
            ]
        },
        {
            "mesh" : 1,
            "name" : "Collision"
        }
    ],
    "animations" : [
        {
            "channels" : [
                {
                    "sampler" : 0,
                    "target" : {
                        "node" : 0,
                        "path" : "translation"
                    }
                },
                {
                    "sampler" : 1,
                    "target" : {
                        "node" : 0,
                        "path" : "rotation"
                    }
                },
                {
                    "sampler" : 2,
                    "target" : {
                        "node" : 0,
                        "path" : "scale"
                    }
                }
            ],
            "name" : "CylinderAction",
            "samplers" : [
                {
                    "input" : 8,
                    "interpolation" : "STEP",
                    "output" : 9
                },
                {
                    "input" : 8,
                    "interpolation" : "STEP",
                    "output" : 10
                },
                {
                    "input" : 8,
                    "interpolation" : "STEP",
                    "output" : 11
                }
            ]
        }
    ],
    "materials" : [
        {
            "doubleSided" : true,
            "emissiveFactor" : [
                0,
                0,
                0
            ],
            "name" : "Material.002",
            "pbrMetallicRoughness" : {
                "baseColorFactor" : [
                    0.800000011920929,
                    0.800000011920929,
                    0.800000011920929,
                    0
                ],
                "metallicFactor" : 0,
                "roughnessFactor" : 0.5
            }
        }
    ],
    "meshes" : [
        {
            "name" : "Cylinder",
            "primitives" : [
                {
                    "attributes" : {
                        "POSITION" : 0,
                        "NORMAL" : 1,
                        "TEXCOORD_0" : 2
                    },
                    "indices" : 3,
                    "material" : 0
                }
            ]
        },
        {
            "name" : "Cube",
            "primitives" : [
                {
                    "attributes" : {
                        "POSITION" : 4,
                        "NORMAL" : 5,
                        "TEXCOORD_0" : 6
                    },
                    "indices" : 7
                }
            ]
        }
    ],
    "accessors" : [
        {
            "bufferView" : 0,
            "componentType" : 5126,
            "count" : 86,
            "max" : [
                0.9898214340209961,
                6.865324020385742,
                0.9594930410385132
            ],
            "min" : [
                -0.9898214936256409,
                -1,
                -1
            ],
            "type" : "VEC3"
        },
        {
            "bufferView" : 1,
            "componentType" : 5126,
            "count" : 86,
            "type" : "VEC3"
        },
        {
            "bufferView" : 2,
            "componentType" : 5126,
            "count" : 86,
            "type" : "VEC2"
        },
        {
            "bufferView" : 3,
            "componentType" : 5123,
            "count" : 144,
            "type" : "SCALAR"
        },
        {
            "bufferView" : 4,
            "componentType" : 5126,
            "count" : 24,
            "max" : [
                1,
                1,
                1
            ],
            "min" : [
                -1,
                -1,
                -1
            ],
            "type" : "VEC3"
        },
        {
            "bufferView" : 5,
            "componentType" : 5126,
            "count" : 24,
            "type" : "VEC3"
        },
        {
            "bufferView" : 6,
            "componentType" : 5126,
            "count" : 24,
            "type" : "VEC2"
        },
        {
            "bufferView" : 7,
            "componentType" : 5123,
            "count" : 36,
            "type" : "SCALAR"
        },
        {
            "bufferView" : 8,
            "componentType" : 5126,
            "count" : 1,
            "max" : [
                0.31666666666666665
            ],
            "min" : [
                0.31666666666666665
            ],
            "type" : "SCALAR"
        },
        {
            "bufferView" : 9,
            "componentType" : 5126,
            "count" : 1,
            "type" : "VEC3"
        },
        {
            "bufferView" : 10,
            "componentType" : 5126,
            "count" : 1,
            "type" : "VEC4"
        },
        {
            "bufferView" : 11,
            "componentType" : 5126,
            "count" : 1,
            "type" : "VEC3"
        }
    ],
    "bufferViews" : [
        {
            "buffer" : 0,
            "byteLength" : 1032,
            "byteOffset" : 0
        },
        {
            "buffer" : 0,
            "byteLength" : 1032,
            "byteOffset" : 1032
        },
        {
            "buffer" : 0,
            "byteLength" : 688,
            "byteOffset" : 2064
        },
        {
            "buffer" : 0,
            "byteLength" : 288,
            "byteOffset" : 2752
        },
        {
            "buffer" : 0,
            "byteLength" : 288,
            "byteOffset" : 3040
        },
        {
            "buffer" : 0,
            "byteLength" : 288,
            "byteOffset" : 3328
        },
        {
            "buffer" : 0,
            "byteLength" : 192,
            "byteOffset" : 3616
        },
        {
            "buffer" : 0,
            "byteLength" : 72,
            "byteOffset" : 3808
        },
        {
            "buffer" : 0,
            "byteLength" : 4,
            "byteOffset" : 3880
        },
        {
            "buffer" : 0,
            "byteLength" : 12,
            "byteOffset" : 3884
        },
        {
            "buffer" : 0,
            "byteLength" : 16,
            "byteOffset" : 3896
        },
        {
            "buffer" : 0,
            "byteLength" : 12,
            "byteOffset" : 3912
        }
    ],
    "buffers" : [
        {
            "byteLength" : 3924,
            "uri" : "Human.bin"
        }
    ]
}
