{
    "asset" : {
        "generator" : "Khronos glTF Blender I/O v1.1.46",
        "version" : "2.0"
    },
    "scene" : 0,
    "scenes" : [
        {
            "name" : "Scene",
            "nodes" : [
                0
            ]
        }
    ],
    "nodes" : [
        {
            "mesh" : 0,
            "name" : "Grid.001",
            "rotation" : [
                1,
                0,
                0,
                -1.6292068494294654e-07
            ],
            "translation" : [
                0,
                15,
                0
            ]
        }
    ],
    "materials" : [
        {
            "emissiveFactor" : [
                0,
                0,
                0
            ],
            "name" : "Ground",
            "pbrMetallicRoughness" : {
                "baseColorFactor" : [
                    0.800000011920929,
                    0.800000011920929,
                    0.800000011920929,
                    1
                ],
                "metallicFactor" : 0,
                "roughnessFactor" : 0.5
            }
        },
        {
            "emissiveFactor" : [
                0,
                0,
                0
            ],
            "name" : "OutWall",
            "normalTexture" : {
                "index" : 0,
                "texCoord" : 0
            },
            "pbrMetallicRoughness" : {
                "baseColorTexture" : {
                    "index" : 1,
                    "texCoord" : 0
                },
                "metallicFactor" : 0,
                "roughnessFactor" : 0.5
            }
        },
        {
            "emissiveFactor" : [
                0,
                0,
                0
            ],
            "name" : "InWall",
            "normalTexture" : {
                "index" : 2,
                "texCoord" : 0
            },
            "pbrMetallicRoughness" : {
                "baseColorFactor" : [
                    0.6920710802078247,
                    0.6920710802078247,
                    0.6920710802078247,
                    1
                ],
                "metallicFactor" : 0,
                "roughnessFactor" : 0.44999998807907104
            }
        },
        {
            "doubleSided" : true,
            "emissiveFactor" : [
                0,
                0,
                0
            ],
            "name" : "InWall2",
            "normalTexture" : {
                "index" : 3,
                "texCoord" : 0
            },
            "pbrMetallicRoughness" : {
                "baseColorFactor" : [
                    0.800000011920929,
                    0.800000011920929,
                    0.800000011920929,
                    1
                ],
                "metallicFactor" : 0,
                "roughnessFactor" : 0.5
            }
        },
        {
            "doubleSided" : true,
            "emissiveFactor" : [
                0,
                0,
                0
            ],
            "name" : "Frame",
            "pbrMetallicRoughness" : {
                "baseColorFactor" : [
                    0.4479883313179016,
                    0.4479883313179016,
                    0.4479883313179016,
                    1
                ],
                "metallicFactor" : 0.5,
                "roughnessFactor" : 0.5
            }
        },
        {
            "doubleSided" : true,
            "emissiveFactor" : [
                0,
                0,
                0
            ],
            "name" : "Dark",
            "pbrMetallicRoughness" : {
                "baseColorFactor" : [
                    0.10048149526119232,
                    0.10048149526119232,
                    0.10048149526119232,
                    1
                ],
                "metallicFactor" : 0,
                "roughnessFactor" : 0.5
            }
        }
    ],
    "meshes" : [
        {
            "name" : "Grid.001",
            "primitives" : [
                {
                    "attributes" : {
                        "POSITION" : 0,
                        "NORMAL" : 1,
                        "TEXCOORD_0" : 2
                    },
                    "indices" : 3,
                    "material" : 0
                },
                {
                    "attributes" : {
                        "POSITION" : 4,
                        "NORMAL" : 5,
                        "TEXCOORD_0" : 6
                    },
                    "indices" : 7,
                    "material" : 1
                },
                {
                    "attributes" : {
                        "POSITION" : 8,
                        "NORMAL" : 9,
                        "TEXCOORD_0" : 10
                    },
                    "indices" : 11,
                    "material" : 2
                },
                {
                    "attributes" : {
                        "POSITION" : 12,
                        "NORMAL" : 13,
                        "TEXCOORD_0" : 14
                    },
                    "indices" : 15,
                    "material" : 3
                },
                {
                    "attributes" : {
                        "POSITION" : 16,
                        "NORMAL" : 17,
                        "TEXCOORD_0" : 18
                    },
                    "indices" : 19,
                    "material" : 4
                },
                {
                    "attributes" : {
                        "POSITION" : 20,
                        "NORMAL" : 21,
                        "TEXCOORD_0" : 22
                    },
                    "indices" : 23,
                    "material" : 5
                }
            ]
        }
    ],
    "textures" : [
        {
            "source" : 0
        },
        {
            "source" : 1
        },
        {
            "source" : 2
        },
        {
            "source" : 3
        }
    ],
    "images" : [
        {
            "mimeType" : "image/png",
            "name" : "TileNormal",
            "uri" : "TileNormal.png"
        },
        {
            "mimeType" : "image/png",
            "name" : "Tile",
            "uri" : "Tile.png"
        },
        {
            "mimeType" : "image/png",
            "name" : "IronNormal.png",
            "uri" : "IronNormal_png.png"
        },
        {
            "mimeType" : "image/png",
            "name" : "WallNormal.png",
            "uri" : "WallNormal_png.png"
        }
    ],
    "accessors" : [
        {
            "bufferView" : 0,
            "componentType" : 5126,
            "count" : 3696,
            "max" : [
                25.043575286865234,
                19.000003814697266,
                19.575761795043945
            ],
            "min" : [
                -37,
                -15.071288108825684,
                -29
            ],
            "type" : "VEC3"
        },
        {
            "bufferView" : 1,
            "componentType" : 5126,
            "count" : 3696,
            "type" : "VEC3"
        },
        {
            "bufferView" : 2,
            "componentType" : 5126,
            "count" : 3696,
            "type" : "VEC2"
        },
        {
            "bufferView" : 3,
            "componentType" : 5123,
            "count" : 9183,
            "type" : "SCALAR"
        },
        {
            "bufferView" : 4,
            "componentType" : 5126,
            "count" : 3189,
            "max" : [
                15.000003814697266,
                15.000003814697266,
                15.000000953674316
            ],
            "min" : [
                -37.262691497802734,
                -15.641166687011719,
                -21.780338287353516
            ],
            "type" : "VEC3"
        },
        {
            "bufferView" : 5,
            "componentType" : 5126,
            "count" : 3189,
            "type" : "VEC3"
        },
        {
            "bufferView" : 6,
            "componentType" : 5126,
            "count" : 3189,
            "type" : "VEC2"
        },
        {
            "bufferView" : 7,
            "componentType" : 5123,
            "count" : 5196,
            "type" : "SCALAR"
        },
        {
            "bufferView" : 8,
            "componentType" : 5126,
            "count" : 662,
            "max" : [
                11.000001907348633,
                14.999996185302734,
                -6.800004959106445
            ],
            "min" : [
                -31,
                -11.00000286102295,
                -29
            ],
            "type" : "VEC3"
        },
        {
            "bufferView" : 9,
            "componentType" : 5126,
            "count" : 662,
            "type" : "VEC3"
        },
        {
            "bufferView" : 10,
            "componentType" : 5126,
            "count" : 662,
            "type" : "VEC2"
        },
        {
            "bufferView" : 11,
            "componentType" : 5123,
            "count" : 1905,
            "type" : "SCALAR"
        },
        {
            "bufferView" : 12,
            "componentType" : 5126,
            "count" : 235,
            "max" : [
                15,
                14.999996185302734,
                -6.8000030517578125
            ],
            "min" : [
                2.8000009059906006,
                -15.000003814697266,
                -15.00000286102295
            ],
            "type" : "VEC3"
        },
        {
            "bufferView" : 13,
            "componentType" : 5126,
            "count" : 235,
            "type" : "VEC3"
        },
        {
            "bufferView" : 14,
            "componentType" : 5126,
            "count" : 235,
            "type" : "VEC2"
        },
        {
            "bufferView" : 15,
            "componentType" : 5123,
            "count" : 516,
            "type" : "SCALAR"
        },
        {
            "bufferView" : 16,
            "componentType" : 5126,
            "count" : 850,
            "max" : [
                15.000017166137695,
                15.000019073486328,
                15.000001907348633
            ],
            "min" : [
                -15.199999809265137,
                -15.000246047973633,
                -15.20000171661377
            ],
            "type" : "VEC3"
        },
        {
            "bufferView" : 17,
            "componentType" : 5126,
            "count" : 850,
            "type" : "VEC3"
        },
        {
            "bufferView" : 18,
            "componentType" : 5126,
            "count" : 850,
            "type" : "VEC2"
        },
        {
            "bufferView" : 19,
            "componentType" : 5123,
            "count" : 1350,
            "type" : "SCALAR"
        },
        {
            "bufferView" : 20,
            "componentType" : 5126,
            "count" : 474,
            "max" : [
                14.999998092651367,
                23.000003814697266,
                14.999993324279785
            ],
            "min" : [
                -37,
                -4.000002861022949,
                -29
            ],
            "type" : "VEC3"
        },
        {
            "bufferView" : 21,
            "componentType" : 5126,
            "count" : 474,
            "type" : "VEC3"
        },
        {
            "bufferView" : 22,
            "componentType" : 5126,
            "count" : 474,
            "type" : "VEC2"
        },
        {
            "bufferView" : 23,
            "componentType" : 5123,
            "count" : 1392,
            "type" : "SCALAR"
        }
    ],
    "bufferViews" : [
        {
            "buffer" : 0,
            "byteLength" : 44352,
            "byteOffset" : 0
        },
        {
            "buffer" : 0,
            "byteLength" : 44352,
            "byteOffset" : 44352
        },
        {
            "buffer" : 0,
            "byteLength" : 29568,
            "byteOffset" : 88704
        },
        {
            "buffer" : 0,
            "byteLength" : 18366,
            "byteOffset" : 118272
        },
        {
            "buffer" : 0,
            "byteLength" : 38268,
            "byteOffset" : 136640
        },
        {
            "buffer" : 0,
            "byteLength" : 38268,
            "byteOffset" : 174908
        },
        {
            "buffer" : 0,
            "byteLength" : 25512,
            "byteOffset" : 213176
        },
        {
            "buffer" : 0,
            "byteLength" : 10392,
            "byteOffset" : 238688
        },
        {
            "buffer" : 0,
            "byteLength" : 7944,
            "byteOffset" : 249080
        },
        {
            "buffer" : 0,
            "byteLength" : 7944,
            "byteOffset" : 257024
        },
        {
            "buffer" : 0,
            "byteLength" : 5296,
            "byteOffset" : 264968
        },
        {
            "buffer" : 0,
            "byteLength" : 3810,
            "byteOffset" : 270264
        },
        {
            "buffer" : 0,
            "byteLength" : 2820,
            "byteOffset" : 274076
        },
        {
            "buffer" : 0,
            "byteLength" : 2820,
            "byteOffset" : 276896
        },
        {
            "buffer" : 0,
            "byteLength" : 1880,
            "byteOffset" : 279716
        },
        {
            "buffer" : 0,
            "byteLength" : 1032,
            "byteOffset" : 281596
        },
        {
            "buffer" : 0,
            "byteLength" : 10200,
            "byteOffset" : 282628
        },
        {
            "buffer" : 0,
            "byteLength" : 10200,
            "byteOffset" : 292828
        },
        {
            "buffer" : 0,
            "byteLength" : 6800,
            "byteOffset" : 303028
        },
        {
            "buffer" : 0,
            "byteLength" : 2700,
            "byteOffset" : 309828
        },
        {
            "buffer" : 0,
            "byteLength" : 5688,
            "byteOffset" : 312528
        },
        {
            "buffer" : 0,
            "byteLength" : 5688,
            "byteOffset" : 318216
        },
        {
            "buffer" : 0,
            "byteLength" : 3792,
            "byteOffset" : 323904
        },
        {
            "buffer" : 0,
            "byteLength" : 2784,
            "byteOffset" : 327696
        }
    ],
    "buffers" : [
        {
            "byteLength" : 330480,
            "uri" : "Area7.bin"
        }
    ]
}
