{
    "asset" : {
        "generator" : "Khronos glTF Blender I/O v1.1.46",
        "version" : "2.0"
    },
    "scene" : 0,
    "scenes" : [
        {
            "name" : "Scene",
            "nodes" : [
                0
            ]
        }
    ],
    "nodes" : [
        {
            "mesh" : 0,
            "name" : "Area3",
            "rotation" : [
                0.4999999701976776,
                0.4999999701976776,
                -0.5,
                0.5000000596046448
            ]
        }
    ],
    "materials" : [
        {
            "emissiveFactor" : [
                0,
                0,
                0
            ],
            "name" : "InWall",
            "pbrMetallicRoughness" : {
                "baseColorFactor" : [
                    0.6920710802078247,
                    0.6920710802078247,
                    0.6920710802078247,
                    1
                ],
                "metallicFactor" : 0,
                "roughnessFactor" : 0.44999998807907104
            }
        },
        {
            "emissiveFactor" : [
                0,
                0,
                0
            ],
            "name" : "OutWall",
            "normalTexture" : {
                "index" : 0,
                "texCoord" : 0
            },
            "pbrMetallicRoughness" : {
                "baseColorTexture" : {
                    "index" : 1,
                    "texCoord" : 0
                },
                "metallicFactor" : 0,
                "roughnessFactor" : 0.5
            }
        },
        {
            "emissiveFactor" : [
                0,
                0,
                0
            ],
            "name" : "Ground",
            "pbrMetallicRoughness" : {
                "baseColorFactor" : [
                    1,
                    1,
                    1,
                    1
                ],
                "metallicFactor" : 0,
                "roughnessFactor" : 0.5
            }
        },
        {
            "doubleSided" : true,
            "emissiveFactor" : [
                0,
                0,
                0
            ],
            "name" : "Dark",
            "pbrMetallicRoughness" : {
                "baseColorFactor" : [
                    0.04518425092101097,
                    0.04518425092101097,
                    0.04518425092101097,
                    1
                ],
                "metallicFactor" : 0,
                "roughnessFactor" : 0.5
            }
        }
    ],
    "meshes" : [
        {
            "name" : "Grid.004",
            "primitives" : [
                {
                    "attributes" : {
                        "POSITION" : 0,
                        "NORMAL" : 1,
                        "TEXCOORD_0" : 2
                    },
                    "indices" : 3,
                    "material" : 0
                },
                {
                    "attributes" : {
                        "POSITION" : 4,
                        "NORMAL" : 5,
                        "TEXCOORD_0" : 6
                    },
                    "indices" : 7,
                    "material" : 1
                },
                {
                    "attributes" : {
                        "POSITION" : 8,
                        "NORMAL" : 9,
                        "TEXCOORD_0" : 10
                    },
                    "indices" : 11,
                    "material" : 2
                },
                {
                    "attributes" : {
                        "POSITION" : 12,
                        "NORMAL" : 13,
                        "TEXCOORD_0" : 14
                    },
                    "indices" : 15,
                    "material" : 3
                }
            ]
        }
    ],
    "textures" : [
        {
            "source" : 0
        },
        {
            "source" : 1
        }
    ],
    "images" : [
        {
            "mimeType" : "image/png",
            "name" : "TileNormal",
            "uri" : "TileNormal.png"
        },
        {
            "mimeType" : "image/png",
            "name" : "Tile",
            "uri" : "Tile.png"
        }
    ],
    "accessors" : [
        {
            "bufferView" : 0,
            "componentType" : 5126,
            "count" : 184,
            "max" : [
                10.000000953674316,
                10.00000286102295,
                1.9073486328125e-06
            ],
            "min" : [
                -10,
                -18.000003814697266,
                -20
            ],
            "type" : "VEC3"
        },
        {
            "bufferView" : 1,
            "componentType" : 5126,
            "count" : 184,
            "type" : "VEC3"
        },
        {
            "bufferView" : 2,
            "componentType" : 5126,
            "count" : 184,
            "type" : "VEC2"
        },
        {
            "bufferView" : 3,
            "componentType" : 5123,
            "count" : 294,
            "type" : "SCALAR"
        },
        {
            "bufferView" : 4,
            "componentType" : 5126,
            "count" : 150,
            "max" : [
                10.000000953674316,
                10.000003814697266,
                1.9073486328125e-06
            ],
            "min" : [
                -10.01272201538086,
                -22.0000057220459,
                -23.00531005859375
            ],
            "type" : "VEC3"
        },
        {
            "bufferView" : 5,
            "componentType" : 5126,
            "count" : 150,
            "type" : "VEC3"
        },
        {
            "bufferView" : 6,
            "componentType" : 5126,
            "count" : 150,
            "type" : "VEC2"
        },
        {
            "bufferView" : 7,
            "componentType" : 5123,
            "count" : 252,
            "type" : "SCALAR"
        },
        {
            "bufferView" : 8,
            "componentType" : 5126,
            "count" : 333,
            "max" : [
                10.262066841125488,
                19.999996185302734,
                1.9073486328125e-06
            ],
            "min" : [
                -10.66888427734375,
                -22.501785278320312,
                -23.194747924804688
            ],
            "type" : "VEC3"
        },
        {
            "bufferView" : 9,
            "componentType" : 5126,
            "count" : 333,
            "type" : "VEC3"
        },
        {
            "bufferView" : 10,
            "componentType" : 5126,
            "count" : 333,
            "type" : "VEC2"
        },
        {
            "bufferView" : 11,
            "componentType" : 5123,
            "count" : 519,
            "type" : "SCALAR"
        },
        {
            "bufferView" : 12,
            "componentType" : 5126,
            "count" : 4,
            "max" : [
                9.987283706665039,
                -22.000003814697266,
                -19.00102996826172
            ],
            "min" : [
                5.987279891967773,
                -22.0000057220459,
                -23.00102996826172
            ],
            "type" : "VEC3"
        },
        {
            "bufferView" : 13,
            "componentType" : 5126,
            "count" : 4,
            "type" : "VEC3"
        },
        {
            "bufferView" : 14,
            "componentType" : 5126,
            "count" : 4,
            "type" : "VEC2"
        },
        {
            "bufferView" : 15,
            "componentType" : 5123,
            "count" : 6,
            "type" : "SCALAR"
        }
    ],
    "bufferViews" : [
        {
            "buffer" : 0,
            "byteLength" : 2208,
            "byteOffset" : 0
        },
        {
            "buffer" : 0,
            "byteLength" : 2208,
            "byteOffset" : 2208
        },
        {
            "buffer" : 0,
            "byteLength" : 1472,
            "byteOffset" : 4416
        },
        {
            "buffer" : 0,
            "byteLength" : 588,
            "byteOffset" : 5888
        },
        {
            "buffer" : 0,
            "byteLength" : 1800,
            "byteOffset" : 6476
        },
        {
            "buffer" : 0,
            "byteLength" : 1800,
            "byteOffset" : 8276
        },
        {
            "buffer" : 0,
            "byteLength" : 1200,
            "byteOffset" : 10076
        },
        {
            "buffer" : 0,
            "byteLength" : 504,
            "byteOffset" : 11276
        },
        {
            "buffer" : 0,
            "byteLength" : 3996,
            "byteOffset" : 11780
        },
        {
            "buffer" : 0,
            "byteLength" : 3996,
            "byteOffset" : 15776
        },
        {
            "buffer" : 0,
            "byteLength" : 2664,
            "byteOffset" : 19772
        },
        {
            "buffer" : 0,
            "byteLength" : 1038,
            "byteOffset" : 22436
        },
        {
            "buffer" : 0,
            "byteLength" : 48,
            "byteOffset" : 23476
        },
        {
            "buffer" : 0,
            "byteLength" : 48,
            "byteOffset" : 23524
        },
        {
            "buffer" : 0,
            "byteLength" : 32,
            "byteOffset" : 23572
        },
        {
            "buffer" : 0,
            "byteLength" : 12,
            "byteOffset" : 23604
        }
    ],
    "buffers" : [
        {
            "byteLength" : 23616,
            "uri" : "Area3.bin"
        }
    ]
}
